<mxfile host="app.diagrams.net" modified="2023-10-05T22:51:16.748Z" agent="Mozilla/5.0 (Windows NT 10.0; Win64; x64) AppleWebKit/537.36 (KHTML, like Gecko) Chrome/117.0.0.0 Safari/537.36" etag="qq3CsBZ-e1GCTdkSyo7i" version="22.0.3" type="github">
  <diagram name="Page-1" id="88xkAEciGBHpEoHT8a77">
    <mxGraphModel dx="30014" dy="578" grid="1" gridSize="10" guides="1" tooltips="1" connect="1" arrows="1" fold="1" page="1" pageScale="1" pageWidth="850" pageHeight="1100" math="0" shadow="0">
      <root>
        <mxCell id="0" />
        <mxCell id="1" parent="0" />
        <mxCell id="C2OVpttP7pJ9jfqpv7On-1" value="" style="strokeWidth=1;shadow=0;dashed=0;align=center;html=1;shape=mxgraph.mockup.containers.browserWindow;rSize=0;strokeColor=#666666;strokeColor2=#008cff;strokeColor3=#c4c4c4;mainText=,;recursiveResize=0;" vertex="1" parent="1">
          <mxGeometry x="10" y="110" width="770" height="680" as="geometry" />
        </mxCell>
        <mxCell id="C2OVpttP7pJ9jfqpv7On-2" value="home" style="strokeWidth=1;shadow=0;dashed=0;align=center;html=1;shape=mxgraph.mockup.containers.anchor;fontSize=17;fontColor=#666666;align=left;whiteSpace=wrap;" vertex="1" parent="C2OVpttP7pJ9jfqpv7On-1">
          <mxGeometry x="60" y="12" width="110" height="26" as="geometry" />
        </mxCell>
        <mxCell id="C2OVpttP7pJ9jfqpv7On-3" value="https://www.guizegame.com/home" style="strokeWidth=1;shadow=0;dashed=0;align=center;html=1;shape=mxgraph.mockup.containers.anchor;rSize=0;fontSize=17;fontColor=#666666;align=left;" vertex="1" parent="C2OVpttP7pJ9jfqpv7On-1">
          <mxGeometry x="130" y="60" width="250" height="26" as="geometry" />
        </mxCell>
        <mxCell id="C2OVpttP7pJ9jfqpv7On-10" value="" style="strokeWidth=1;shadow=0;dashed=0;align=center;html=1;shape=mxgraph.mockup.text.rrect;rSize=0;strokeColor=#666666;" vertex="1" parent="C2OVpttP7pJ9jfqpv7On-1">
          <mxGeometry x="260" y="142.5" width="500" height="25" as="geometry" />
        </mxCell>
        <mxCell id="C2OVpttP7pJ9jfqpv7On-11" value="score" style="strokeColor=inherit;fillColor=inherit;gradientColor=inherit;strokeWidth=1;shadow=0;dashed=0;align=center;html=1;shape=mxgraph.mockup.text.rrect;rSize=0;fontSize=17;fontColor=#0000ff;whiteSpace=wrap;" vertex="1" parent="C2OVpttP7pJ9jfqpv7On-10">
          <mxGeometry x="125" width="125" height="25" as="geometry" />
        </mxCell>
        <mxCell id="C2OVpttP7pJ9jfqpv7On-12" value="login" style="strokeColor=inherit;fillColor=inherit;gradientColor=inherit;strokeWidth=1;shadow=0;dashed=0;align=center;html=1;shape=mxgraph.mockup.text.rrect;rSize=0;fontSize=17;fontColor=#0000ff;whiteSpace=wrap;" vertex="1" parent="C2OVpttP7pJ9jfqpv7On-10">
          <mxGeometry x="250" width="125" height="25" as="geometry" />
        </mxCell>
        <mxCell id="C2OVpttP7pJ9jfqpv7On-13" value="contact" style="strokeColor=inherit;fillColor=inherit;gradientColor=inherit;strokeWidth=1;shadow=0;dashed=0;align=center;html=1;shape=mxgraph.mockup.text.rrect;rSize=0;fontSize=17;fontColor=#0000ff;whiteSpace=wrap;" vertex="1" parent="C2OVpttP7pJ9jfqpv7On-10">
          <mxGeometry x="375" width="125" height="25" as="geometry" />
        </mxCell>
        <mxCell id="C2OVpttP7pJ9jfqpv7On-14" value="home" style="strokeWidth=1;shadow=0;dashed=0;align=center;html=1;shape=mxgraph.mockup.text.rrect;rSize=0;fontSize=17;fontColor=#ffffff;fillColor=#008cff;strokeColor=#008cff;whiteSpace=wrap;" vertex="1" parent="C2OVpttP7pJ9jfqpv7On-10">
          <mxGeometry width="125" height="25" as="geometry" />
        </mxCell>
        <mxCell id="C2OVpttP7pJ9jfqpv7On-15" value="let&#39;s play" style="strokeWidth=1;shadow=0;dashed=0;align=center;html=1;shape=mxgraph.mockup.buttons.button;strokeColor=#666666;fontColor=#ffffff;mainText=;buttonStyle=round;fontSize=17;fontStyle=1;fillColor=#008cff;whiteSpace=wrap;" vertex="1" parent="C2OVpttP7pJ9jfqpv7On-1">
          <mxGeometry x="320" y="480" width="150" height="50" as="geometry" />
        </mxCell>
        <mxCell id="C2OVpttP7pJ9jfqpv7On-16" value="" style="verticalLabelPosition=bottom;shadow=0;dashed=0;align=center;html=1;verticalAlign=top;strokeWidth=1;shape=mxgraph.mockup.graphics.simpleIcon;strokeColor=#999999;" vertex="1" parent="C2OVpttP7pJ9jfqpv7On-1">
          <mxGeometry x="40" y="130" width="90" height="50" as="geometry" />
        </mxCell>
        <mxCell id="C2OVpttP7pJ9jfqpv7On-199" value="Note Line 1&#xa;Note Line 2&#xa;Note Line 3" style="strokeWidth=1;shadow=0;dashed=0;align=center;html=1;shape=mxgraph.mockup.text.stickyNote2;fontColor=#666666;mainText=;fontSize=17;whiteSpace=wrap;fillColor=#ffffcc;strokeColor=#F62E00;" vertex="1" parent="C2OVpttP7pJ9jfqpv7On-1">
          <mxGeometry x="295" y="230" width="200" height="200" as="geometry" />
        </mxCell>
        <mxCell id="C2OVpttP7pJ9jfqpv7On-17" value="" style="strokeWidth=1;shadow=0;dashed=0;align=center;html=1;shape=mxgraph.mockup.containers.browserWindow;rSize=0;strokeColor=#666666;strokeColor2=#008cff;strokeColor3=#c4c4c4;mainText=,;recursiveResize=0;" vertex="1" parent="1">
          <mxGeometry x="20" y="830" width="770" height="690" as="geometry" />
        </mxCell>
        <mxCell id="C2OVpttP7pJ9jfqpv7On-18" value="home" style="strokeWidth=1;shadow=0;dashed=0;align=center;html=1;shape=mxgraph.mockup.containers.anchor;fontSize=17;fontColor=#666666;align=left;whiteSpace=wrap;" vertex="1" parent="C2OVpttP7pJ9jfqpv7On-17">
          <mxGeometry x="60" y="12" width="110" height="26" as="geometry" />
        </mxCell>
        <mxCell id="C2OVpttP7pJ9jfqpv7On-19" value="https://www.quizegame.com/home" style="strokeWidth=1;shadow=0;dashed=0;align=center;html=1;shape=mxgraph.mockup.containers.anchor;rSize=0;fontSize=17;fontColor=#666666;align=left;" vertex="1" parent="C2OVpttP7pJ9jfqpv7On-17">
          <mxGeometry x="130" y="60" width="250" height="26" as="geometry" />
        </mxCell>
        <mxCell id="C2OVpttP7pJ9jfqpv7On-20" value="" style="strokeWidth=1;shadow=0;dashed=0;align=center;html=1;shape=mxgraph.mockup.text.rrect;rSize=0;strokeColor=#666666;" vertex="1" parent="C2OVpttP7pJ9jfqpv7On-17">
          <mxGeometry x="260" y="142.5" width="500" height="25" as="geometry" />
        </mxCell>
        <mxCell id="C2OVpttP7pJ9jfqpv7On-21" value="score" style="strokeColor=inherit;fillColor=inherit;gradientColor=inherit;strokeWidth=1;shadow=0;dashed=0;align=center;html=1;shape=mxgraph.mockup.text.rrect;rSize=0;fontSize=17;fontColor=#0000ff;whiteSpace=wrap;" vertex="1" parent="C2OVpttP7pJ9jfqpv7On-20">
          <mxGeometry x="125" width="125" height="25" as="geometry" />
        </mxCell>
        <mxCell id="C2OVpttP7pJ9jfqpv7On-22" value="login" style="strokeColor=inherit;fillColor=inherit;gradientColor=inherit;strokeWidth=1;shadow=0;dashed=0;align=center;html=1;shape=mxgraph.mockup.text.rrect;rSize=0;fontSize=17;fontColor=#0000ff;whiteSpace=wrap;" vertex="1" parent="C2OVpttP7pJ9jfqpv7On-20">
          <mxGeometry x="250" width="125" height="25" as="geometry" />
        </mxCell>
        <mxCell id="C2OVpttP7pJ9jfqpv7On-23" value="contact" style="strokeColor=inherit;fillColor=inherit;gradientColor=inherit;strokeWidth=1;shadow=0;dashed=0;align=center;html=1;shape=mxgraph.mockup.text.rrect;rSize=0;fontSize=17;fontColor=#0000ff;whiteSpace=wrap;" vertex="1" parent="C2OVpttP7pJ9jfqpv7On-20">
          <mxGeometry x="375" width="125" height="25" as="geometry" />
        </mxCell>
        <mxCell id="C2OVpttP7pJ9jfqpv7On-24" value="home" style="strokeWidth=1;shadow=0;dashed=0;align=center;html=1;shape=mxgraph.mockup.text.rrect;rSize=0;fontSize=17;fontColor=#ffffff;fillColor=#008cff;strokeColor=#008cff;whiteSpace=wrap;" vertex="1" parent="C2OVpttP7pJ9jfqpv7On-20">
          <mxGeometry width="125" height="25" as="geometry" />
        </mxCell>
        <mxCell id="C2OVpttP7pJ9jfqpv7On-26" value="" style="verticalLabelPosition=bottom;shadow=0;dashed=0;align=center;html=1;verticalAlign=top;strokeWidth=1;shape=mxgraph.mockup.graphics.simpleIcon;strokeColor=#999999;" vertex="1" parent="C2OVpttP7pJ9jfqpv7On-17">
          <mxGeometry x="40" y="130" width="90" height="50" as="geometry" />
        </mxCell>
        <mxCell id="C2OVpttP7pJ9jfqpv7On-33" value="" style="strokeWidth=1;shadow=0;dashed=0;align=center;html=1;shape=mxgraph.mockup.containers.browserWindow;rSize=0;strokeColor=#666666;strokeColor2=#008cff;strokeColor3=#c4c4c4;mainText=,;recursiveResize=0;" vertex="1" parent="1">
          <mxGeometry x="40" y="1590" width="770" height="690" as="geometry" />
        </mxCell>
        <mxCell id="C2OVpttP7pJ9jfqpv7On-34" value="home" style="strokeWidth=1;shadow=0;dashed=0;align=center;html=1;shape=mxgraph.mockup.containers.anchor;fontSize=17;fontColor=#666666;align=left;whiteSpace=wrap;" vertex="1" parent="C2OVpttP7pJ9jfqpv7On-33">
          <mxGeometry x="60" y="12" width="110" height="26" as="geometry" />
        </mxCell>
        <mxCell id="C2OVpttP7pJ9jfqpv7On-35" value="https://www.quizegame.com/catagory" style="strokeWidth=1;shadow=0;dashed=0;align=center;html=1;shape=mxgraph.mockup.containers.anchor;rSize=0;fontSize=17;fontColor=#666666;align=left;" vertex="1" parent="C2OVpttP7pJ9jfqpv7On-33">
          <mxGeometry x="130" y="60" width="250" height="26" as="geometry" />
        </mxCell>
        <mxCell id="C2OVpttP7pJ9jfqpv7On-36" value="" style="strokeWidth=1;shadow=0;dashed=0;align=center;html=1;shape=mxgraph.mockup.text.rrect;rSize=0;strokeColor=#666666;" vertex="1" parent="C2OVpttP7pJ9jfqpv7On-33">
          <mxGeometry x="260" y="142.5" width="500" height="25" as="geometry" />
        </mxCell>
        <mxCell id="C2OVpttP7pJ9jfqpv7On-37" value="score" style="strokeColor=inherit;fillColor=inherit;gradientColor=inherit;strokeWidth=1;shadow=0;dashed=0;align=center;html=1;shape=mxgraph.mockup.text.rrect;rSize=0;fontSize=17;fontColor=#0000ff;whiteSpace=wrap;" vertex="1" parent="C2OVpttP7pJ9jfqpv7On-36">
          <mxGeometry x="125" width="125" height="25" as="geometry" />
        </mxCell>
        <mxCell id="C2OVpttP7pJ9jfqpv7On-38" value="login" style="strokeColor=inherit;fillColor=inherit;gradientColor=inherit;strokeWidth=1;shadow=0;dashed=0;align=center;html=1;shape=mxgraph.mockup.text.rrect;rSize=0;fontSize=17;fontColor=#0000ff;whiteSpace=wrap;" vertex="1" parent="C2OVpttP7pJ9jfqpv7On-36">
          <mxGeometry x="250" width="125" height="25" as="geometry" />
        </mxCell>
        <mxCell id="C2OVpttP7pJ9jfqpv7On-39" value="contact" style="strokeColor=inherit;fillColor=inherit;gradientColor=inherit;strokeWidth=1;shadow=0;dashed=0;align=center;html=1;shape=mxgraph.mockup.text.rrect;rSize=0;fontSize=17;fontColor=#0000ff;whiteSpace=wrap;" vertex="1" parent="C2OVpttP7pJ9jfqpv7On-36">
          <mxGeometry x="375" width="125" height="25" as="geometry" />
        </mxCell>
        <mxCell id="C2OVpttP7pJ9jfqpv7On-40" value="home" style="strokeWidth=1;shadow=0;dashed=0;align=center;html=1;shape=mxgraph.mockup.text.rrect;rSize=0;fontSize=17;fontColor=#ffffff;fillColor=#008cff;strokeColor=#008cff;whiteSpace=wrap;" vertex="1" parent="C2OVpttP7pJ9jfqpv7On-36">
          <mxGeometry width="125" height="25" as="geometry" />
        </mxCell>
        <mxCell id="C2OVpttP7pJ9jfqpv7On-41" value="" style="verticalLabelPosition=bottom;shadow=0;dashed=0;align=center;html=1;verticalAlign=top;strokeWidth=1;shape=mxgraph.mockup.graphics.simpleIcon;strokeColor=#999999;" vertex="1" parent="C2OVpttP7pJ9jfqpv7On-33">
          <mxGeometry x="40" y="130" width="90" height="50" as="geometry" />
        </mxCell>
        <mxCell id="C2OVpttP7pJ9jfqpv7On-77" value="" style="strokeWidth=1;shadow=0;dashed=0;align=center;html=1;shape=mxgraph.mockup.containers.browserWindow;rSize=0;strokeColor=#666666;strokeColor2=#008cff;strokeColor3=#c4c4c4;mainText=,;recursiveResize=0;" vertex="1" parent="1">
          <mxGeometry x="10" y="2350" width="770" height="690" as="geometry" />
        </mxCell>
        <mxCell id="C2OVpttP7pJ9jfqpv7On-78" value="home" style="strokeWidth=1;shadow=0;dashed=0;align=center;html=1;shape=mxgraph.mockup.containers.anchor;fontSize=17;fontColor=#666666;align=left;whiteSpace=wrap;" vertex="1" parent="C2OVpttP7pJ9jfqpv7On-77">
          <mxGeometry x="60" y="12" width="110" height="26" as="geometry" />
        </mxCell>
        <mxCell id="C2OVpttP7pJ9jfqpv7On-79" value="https://www.quizegame.com/quize" style="strokeWidth=1;shadow=0;dashed=0;align=center;html=1;shape=mxgraph.mockup.containers.anchor;rSize=0;fontSize=17;fontColor=#666666;align=left;" vertex="1" parent="C2OVpttP7pJ9jfqpv7On-77">
          <mxGeometry x="130" y="60" width="250" height="26" as="geometry" />
        </mxCell>
        <mxCell id="C2OVpttP7pJ9jfqpv7On-80" value="" style="strokeWidth=1;shadow=0;dashed=0;align=center;html=1;shape=mxgraph.mockup.text.rrect;rSize=0;strokeColor=#666666;" vertex="1" parent="C2OVpttP7pJ9jfqpv7On-77">
          <mxGeometry x="260" y="142.5" width="500" height="25" as="geometry" />
        </mxCell>
        <mxCell id="C2OVpttP7pJ9jfqpv7On-81" value="score" style="strokeColor=inherit;fillColor=inherit;gradientColor=inherit;strokeWidth=1;shadow=0;dashed=0;align=center;html=1;shape=mxgraph.mockup.text.rrect;rSize=0;fontSize=17;fontColor=#0000ff;whiteSpace=wrap;" vertex="1" parent="C2OVpttP7pJ9jfqpv7On-80">
          <mxGeometry x="125" width="125" height="25" as="geometry" />
        </mxCell>
        <mxCell id="C2OVpttP7pJ9jfqpv7On-82" value="login" style="strokeColor=inherit;fillColor=inherit;gradientColor=inherit;strokeWidth=1;shadow=0;dashed=0;align=center;html=1;shape=mxgraph.mockup.text.rrect;rSize=0;fontSize=17;fontColor=#0000ff;whiteSpace=wrap;" vertex="1" parent="C2OVpttP7pJ9jfqpv7On-80">
          <mxGeometry x="250" width="125" height="25" as="geometry" />
        </mxCell>
        <mxCell id="C2OVpttP7pJ9jfqpv7On-83" value="contact" style="strokeColor=inherit;fillColor=inherit;gradientColor=inherit;strokeWidth=1;shadow=0;dashed=0;align=center;html=1;shape=mxgraph.mockup.text.rrect;rSize=0;fontSize=17;fontColor=#0000ff;whiteSpace=wrap;" vertex="1" parent="C2OVpttP7pJ9jfqpv7On-80">
          <mxGeometry x="375" width="125" height="25" as="geometry" />
        </mxCell>
        <mxCell id="C2OVpttP7pJ9jfqpv7On-84" value="home" style="strokeWidth=1;shadow=0;dashed=0;align=center;html=1;shape=mxgraph.mockup.text.rrect;rSize=0;fontSize=17;fontColor=#ffffff;fillColor=#008cff;strokeColor=#008cff;whiteSpace=wrap;" vertex="1" parent="C2OVpttP7pJ9jfqpv7On-80">
          <mxGeometry width="125" height="25" as="geometry" />
        </mxCell>
        <mxCell id="C2OVpttP7pJ9jfqpv7On-85" value="" style="verticalLabelPosition=bottom;shadow=0;dashed=0;align=center;html=1;verticalAlign=top;strokeWidth=1;shape=mxgraph.mockup.graphics.simpleIcon;strokeColor=#999999;" vertex="1" parent="C2OVpttP7pJ9jfqpv7On-77">
          <mxGeometry x="40" y="130" width="90" height="50" as="geometry" />
        </mxCell>
        <mxCell id="C2OVpttP7pJ9jfqpv7On-88" value="" style="strokeWidth=1;shadow=0;dashed=0;align=center;html=1;shape=mxgraph.mockup.containers.rrect;rSize=0;strokeColor=#666666;fontColor=#666666;fontSize=17;verticalAlign=top;whiteSpace=wrap;fillColor=#ffffff;spacingTop=32;" vertex="1" parent="C2OVpttP7pJ9jfqpv7On-77">
          <mxGeometry x="120" y="230" width="500" height="410" as="geometry" />
        </mxCell>
        <mxCell id="C2OVpttP7pJ9jfqpv7On-89" value="quize" style="strokeWidth=1;shadow=0;dashed=0;align=center;html=1;shape=mxgraph.mockup.containers.rrect;rSize=0;fontSize=17;fontColor=#666666;strokeColor=#666666;align=left;spacingLeft=8;fillColor=none;resizeWidth=1;whiteSpace=wrap;" vertex="1" parent="C2OVpttP7pJ9jfqpv7On-88">
          <mxGeometry width="500" height="30" relative="1" as="geometry" />
        </mxCell>
        <mxCell id="C2OVpttP7pJ9jfqpv7On-90" value="" style="shape=ellipse;strokeColor=#008cff;resizable=0;fillColor=none;html=1;" vertex="1" parent="C2OVpttP7pJ9jfqpv7On-89">
          <mxGeometry x="1" y="0.5" width="20" height="20" relative="1" as="geometry">
            <mxPoint x="-25" y="-10" as="offset" />
          </mxGeometry>
        </mxCell>
        <mxCell id="C2OVpttP7pJ9jfqpv7On-92" value="next" style="strokeWidth=1;shadow=0;dashed=0;align=center;html=1;shape=mxgraph.mockup.containers.rrect;rSize=0;fontSize=16;fontColor=#666666;strokeColor=#c4c4c4;whiteSpace=wrap;fillColor=none;" vertex="1" parent="C2OVpttP7pJ9jfqpv7On-88">
          <mxGeometry x="0.75" y="1" width="109.25" height="46" relative="1" as="geometry">
            <mxPoint x="-124" y="-54" as="offset" />
          </mxGeometry>
        </mxCell>
        <mxCell id="C2OVpttP7pJ9jfqpv7On-94" value="Line 1" style="strokeWidth=1;shadow=0;dashed=0;align=center;html=1;shape=mxgraph.mockup.text.textBox;fontColor=#666666;align=left;fontSize=17;spacingLeft=4;spacingTop=-3;whiteSpace=wrap;strokeColor=#666666;mainText=" vertex="1" parent="C2OVpttP7pJ9jfqpv7On-88">
          <mxGeometry x="139.34426229508196" y="114.8" width="245.90163934426226" height="49.2" as="geometry" />
        </mxCell>
        <mxCell id="C2OVpttP7pJ9jfqpv7On-97" value="Line 1" style="strokeWidth=1;shadow=0;dashed=0;align=center;html=1;shape=mxgraph.mockup.text.textBox;fontColor=#666666;align=left;fontSize=17;spacingLeft=4;spacingTop=-3;whiteSpace=wrap;strokeColor=#666666;mainText=" vertex="1" parent="C2OVpttP7pJ9jfqpv7On-88">
          <mxGeometry x="139.99770491803278" y="196.8" width="245.90163934426226" height="49.2" as="geometry" />
        </mxCell>
        <mxCell id="C2OVpttP7pJ9jfqpv7On-96" value="Line 1" style="strokeWidth=1;shadow=0;dashed=0;align=center;html=1;shape=mxgraph.mockup.text.textBox;fontColor=#666666;align=left;fontSize=17;spacingLeft=4;spacingTop=-3;whiteSpace=wrap;strokeColor=#666666;mainText=" vertex="1" parent="C2OVpttP7pJ9jfqpv7On-88">
          <mxGeometry x="139.99770491803278" y="50.00000000000001" width="245.90163934426226" height="49.2" as="geometry" />
        </mxCell>
        <mxCell id="C2OVpttP7pJ9jfqpv7On-95" value="Line 1" style="strokeWidth=1;shadow=0;dashed=0;align=center;html=1;shape=mxgraph.mockup.text.textBox;fontColor=#666666;align=left;fontSize=17;spacingLeft=4;spacingTop=-3;whiteSpace=wrap;strokeColor=#666666;mainText=" vertex="1" parent="C2OVpttP7pJ9jfqpv7On-88">
          <mxGeometry x="140" y="270" width="250" height="50" as="geometry" />
        </mxCell>
        <mxCell id="C2OVpttP7pJ9jfqpv7On-98" value="Some default&#xa;dialog&#xa;text." style="strokeWidth=1;shadow=0;dashed=0;align=center;html=1;shape=mxgraph.mockup.containers.rrect;rSize=0;strokeColor=#666666;fontColor=#666666;fontSize=17;verticalAlign=top;whiteSpace=wrap;fillColor=#ffffff;spacingTop=32;" vertex="1" parent="1">
          <mxGeometry x="90" y="1050" width="600" height="330" as="geometry" />
        </mxCell>
        <mxCell id="C2OVpttP7pJ9jfqpv7On-99" value="rule" style="strokeWidth=1;shadow=0;dashed=0;align=center;html=1;shape=mxgraph.mockup.containers.rrect;rSize=0;fontSize=17;fontColor=#666666;strokeColor=#666666;align=left;spacingLeft=8;fillColor=none;resizeWidth=1;whiteSpace=wrap;" vertex="1" parent="C2OVpttP7pJ9jfqpv7On-98">
          <mxGeometry width="600" height="30" relative="1" as="geometry" />
        </mxCell>
        <mxCell id="C2OVpttP7pJ9jfqpv7On-100" value="" style="shape=ellipse;strokeColor=#008cff;resizable=0;fillColor=none;html=1;" vertex="1" parent="C2OVpttP7pJ9jfqpv7On-99">
          <mxGeometry x="1" y="0.5" width="20" height="20" relative="1" as="geometry">
            <mxPoint x="-25" y="-10" as="offset" />
          </mxGeometry>
        </mxCell>
        <mxCell id="C2OVpttP7pJ9jfqpv7On-101" value="Cancel" style="strokeWidth=1;shadow=0;dashed=0;align=center;html=1;shape=mxgraph.mockup.containers.rrect;rSize=0;fontSize=16;fontColor=#666666;strokeColor=#c4c4c4;whiteSpace=wrap;fillColor=none;" vertex="1" parent="C2OVpttP7pJ9jfqpv7On-98">
          <mxGeometry x="0.25" y="1" width="90" height="25" relative="1" as="geometry">
            <mxPoint x="-45" y="-33" as="offset" />
          </mxGeometry>
        </mxCell>
        <mxCell id="C2OVpttP7pJ9jfqpv7On-102" value="next" style="strokeWidth=1;shadow=0;dashed=0;align=center;html=1;shape=mxgraph.mockup.containers.rrect;rSize=0;fontSize=16;fontColor=#666666;strokeColor=#c4c4c4;whiteSpace=wrap;fillColor=none;" vertex="1" parent="C2OVpttP7pJ9jfqpv7On-98">
          <mxGeometry x="0.75" y="1" width="90" height="25" relative="1" as="geometry">
            <mxPoint x="-45" y="-33" as="offset" />
          </mxGeometry>
        </mxCell>
        <mxCell id="C2OVpttP7pJ9jfqpv7On-103" value="Some default&#xa;dialog&#xa;text." style="strokeWidth=1;shadow=0;dashed=0;align=center;html=1;shape=mxgraph.mockup.containers.rrect;rSize=0;strokeColor=#666666;fontColor=#666666;fontSize=17;verticalAlign=top;whiteSpace=wrap;fillColor=#ffffff;spacingTop=32;" vertex="1" parent="1">
          <mxGeometry x="280" y="1850" width="310" height="310" as="geometry" />
        </mxCell>
        <mxCell id="C2OVpttP7pJ9jfqpv7On-104" value="catagory" style="strokeWidth=1;shadow=0;dashed=0;align=center;html=1;shape=mxgraph.mockup.containers.rrect;rSize=0;fontSize=17;fontColor=#666666;strokeColor=#666666;align=left;spacingLeft=8;fillColor=none;resizeWidth=1;whiteSpace=wrap;" vertex="1" parent="C2OVpttP7pJ9jfqpv7On-103">
          <mxGeometry width="310" height="30" relative="1" as="geometry" />
        </mxCell>
        <mxCell id="C2OVpttP7pJ9jfqpv7On-105" value="" style="shape=ellipse;strokeColor=#008cff;resizable=0;fillColor=none;html=1;" vertex="1" parent="C2OVpttP7pJ9jfqpv7On-104">
          <mxGeometry x="1" y="0.5" width="20" height="20" relative="1" as="geometry">
            <mxPoint x="-25" y="-10" as="offset" />
          </mxGeometry>
        </mxCell>
        <mxCell id="C2OVpttP7pJ9jfqpv7On-106" value="Cancel" style="strokeWidth=1;shadow=0;dashed=0;align=center;html=1;shape=mxgraph.mockup.containers.rrect;rSize=0;fontSize=16;fontColor=#666666;strokeColor=#c4c4c4;whiteSpace=wrap;fillColor=none;" vertex="1" parent="C2OVpttP7pJ9jfqpv7On-103">
          <mxGeometry x="0.25" y="1" width="90" height="25" relative="1" as="geometry">
            <mxPoint x="-45" y="-33" as="offset" />
          </mxGeometry>
        </mxCell>
        <mxCell id="C2OVpttP7pJ9jfqpv7On-107" value="play" style="strokeWidth=1;shadow=0;dashed=0;align=center;html=1;shape=mxgraph.mockup.containers.rrect;rSize=0;fontSize=16;fontColor=#666666;strokeColor=#c4c4c4;whiteSpace=wrap;fillColor=none;" vertex="1" parent="C2OVpttP7pJ9jfqpv7On-103">
          <mxGeometry x="0.75" y="1" width="90" height="25" relative="1" as="geometry">
            <mxPoint x="-45" y="-33" as="offset" />
          </mxGeometry>
        </mxCell>
        <mxCell id="C2OVpttP7pJ9jfqpv7On-108" value="%3CmxGraphModel%3E%3Croot%3E%3CmxCell%20id%3D%220%22%2F%3E%3CmxCell%20id%3D%221%22%20parent%3D%220%22%2F%3E%3CmxCell%20id%3D%222%22%20value%3D%22%22%20style%3D%22strokeWidth%3D1%3Bshadow%3D0%3Bdashed%3D0%3Balign%3Dcenter%3Bhtml%3D1%3Bshape%3Dmxgraph.mockup.containers.browserWindow%3BrSize%3D0%3BstrokeColor%3D%23666666%3BstrokeColor2%3D%23008cff%3BstrokeColor3%3D%23c4c4c4%3BmainText%3D%2C%3BrecursiveResize%3D0%3B%22%20vertex%3D%221%22%20parent%3D%221%22%3E%3CmxGeometry%20x%3D%2210%22%20y%3D%222350%22%20width%3D%22770%22%20height%3D%22690%22%20as%3D%22geometry%22%2F%3E%3C%2FmxCell%3E%3CmxCell%20id%3D%223%22%20value%3D%22home%22%20style%3D%22strokeWidth%3D1%3Bshadow%3D0%3Bdashed%3D0%3Balign%3Dcenter%3Bhtml%3D1%3Bshape%3Dmxgraph.mockup.containers.anchor%3BfontSize%3D17%3BfontColor%3D%23666666%3Balign%3Dleft%3BwhiteSpace%3Dwrap%3B%22%20vertex%3D%221%22%20parent%3D%222%22%3E%3CmxGeometry%20x%3D%2260%22%20y%3D%2212%22%20width%3D%22110%22%20height%3D%2226%22%20as%3D%22geometry%22%2F%3E%3C%2FmxCell%3E%3CmxCell%20id%3D%224%22%20value%3D%22https%3A%2F%2Fwww.quizegame.com%2Fquize%22%20style%3D%22strokeWidth%3D1%3Bshadow%3D0%3Bdashed%3D0%3Balign%3Dcenter%3Bhtml%3D1%3Bshape%3Dmxgraph.mockup.containers.anchor%3BrSize%3D0%3BfontSize%3D17%3BfontColor%3D%23666666%3Balign%3Dleft%3B%22%20vertex%3D%221%22%20parent%3D%222%22%3E%3CmxGeometry%20x%3D%22130%22%20y%3D%2260%22%20width%3D%22250%22%20height%3D%2226%22%20as%3D%22geometry%22%2F%3E%3C%2FmxCell%3E%3CmxCell%20id%3D%225%22%20value%3D%22%22%20style%3D%22strokeWidth%3D1%3Bshadow%3D0%3Bdashed%3D0%3Balign%3Dcenter%3Bhtml%3D1%3Bshape%3Dmxgraph.mockup.text.rrect%3BrSize%3D0%3BstrokeColor%3D%23666666%3B%22%20vertex%3D%221%22%20parent%3D%222%22%3E%3CmxGeometry%20x%3D%22260%22%20y%3D%22142.5%22%20width%3D%22500%22%20height%3D%2225%22%20as%3D%22geometry%22%2F%3E%3C%2FmxCell%3E%3CmxCell%20id%3D%226%22%20value%3D%22score%22%20style%3D%22strokeColor%3Dinherit%3BfillColor%3Dinherit%3BgradientColor%3Dinherit%3BstrokeWidth%3D1%3Bshadow%3D0%3Bdashed%3D0%3Balign%3Dcenter%3Bhtml%3D1%3Bshape%3Dmxgraph.mockup.text.rrect%3BrSize%3D0%3BfontSize%3D17%3BfontColor%3D%230000ff%3BwhiteSpace%3Dwrap%3B%22%20vertex%3D%221%22%20parent%3D%225%22%3E%3CmxGeometry%20x%3D%22125%22%20width%3D%22125%22%20height%3D%2225%22%20as%3D%22geometry%22%2F%3E%3C%2FmxCell%3E%3CmxCell%20id%3D%227%22%20value%3D%22login%22%20style%3D%22strokeColor%3Dinherit%3BfillColor%3Dinherit%3BgradientColor%3Dinherit%3BstrokeWidth%3D1%3Bshadow%3D0%3Bdashed%3D0%3Balign%3Dcenter%3Bhtml%3D1%3Bshape%3Dmxgraph.mockup.text.rrect%3BrSize%3D0%3BfontSize%3D17%3BfontColor%3D%230000ff%3BwhiteSpace%3Dwrap%3B%22%20vertex%3D%221%22%20parent%3D%225%22%3E%3CmxGeometry%20x%3D%22250%22%20width%3D%22125%22%20height%3D%2225%22%20as%3D%22geometry%22%2F%3E%3C%2FmxCell%3E%3CmxCell%20id%3D%228%22%20value%3D%22contact%22%20style%3D%22strokeColor%3Dinherit%3BfillColor%3Dinherit%3BgradientColor%3Dinherit%3BstrokeWidth%3D1%3Bshadow%3D0%3Bdashed%3D0%3Balign%3Dcenter%3Bhtml%3D1%3Bshape%3Dmxgraph.mockup.text.rrect%3BrSize%3D0%3BfontSize%3D17%3BfontColor%3D%230000ff%3BwhiteSpace%3Dwrap%3B%22%20vertex%3D%221%22%20parent%3D%225%22%3E%3CmxGeometry%20x%3D%22375%22%20width%3D%22125%22%20height%3D%2225%22%20as%3D%22geometry%22%2F%3E%3C%2FmxCell%3E%3CmxCell%20id%3D%229%22%20value%3D%22home%22%20style%3D%22strokeWidth%3D1%3Bshadow%3D0%3Bdashed%3D0%3Balign%3Dcenter%3Bhtml%3D1%3Bshape%3Dmxgraph.mockup.text.rrect%3BrSize%3D0%3BfontSize%3D17%3BfontColor%3D%23ffffff%3BfillColor%3D%23008cff%3BstrokeColor%3D%23008cff%3BwhiteSpace%3Dwrap%3B%22%20vertex%3D%221%22%20parent%3D%225%22%3E%3CmxGeometry%20width%3D%22125%22%20height%3D%2225%22%20as%3D%22geometry%22%2F%3E%3C%2FmxCell%3E%3CmxCell%20id%3D%2210%22%20value%3D%22%22%20style%3D%22verticalLabelPosition%3Dbottom%3Bshadow%3D0%3Bdashed%3D0%3Balign%3Dcenter%3Bhtml%3D1%3BverticalAlign%3Dtop%3BstrokeWidth%3D1%3Bshape%3Dmxgraph.mockup.graphics.simpleIcon%3BstrokeColor%3D%23999999%3B%22%20vertex%3D%221%22%20parent%3D%222%22%3E%3CmxGeometry%20x%3D%2240%22%20y%3D%22130%22%20width%3D%2290%22%20height%3D%2250%22%20as%3D%22geometry%22%2F%3E%3C%2FmxCell%3E%3CmxCell%20id%3D%2211%22%20value%3D%22%22%20style%3D%22strokeWidth%3D1%3Bshadow%3D0%3Bdashed%3D0%3Balign%3Dcenter%3Bhtml%3D1%3Bshape%3Dmxgraph.mockup.containers.rrect%3BrSize%3D0%3BstrokeColor%3D%23666666%3BfontColor%3D%23666666%3BfontSize%3D17%3BverticalAlign%3Dtop%3BwhiteSpace%3Dwrap%3BfillColor%3D%23ffffff%3BspacingTop%3D32%3B%22%20vertex%3D%221%22%20parent%3D%222%22%3E%3CmxGeometry%20x%3D%22120%22%20y%3D%22230%22%20width%3D%22500%22%20height%3D%22410%22%20as%3D%22geometry%22%2F%3E%3C%2FmxCell%3E%3CmxCell%20id%3D%2212%22%20value%3D%22quize%22%20style%3D%22strokeWidth%3D1%3Bshadow%3D0%3Bdashed%3D0%3Balign%3Dcenter%3Bhtml%3D1%3Bshape%3Dmxgraph.mockup.containers.rrect%3BrSize%3D0%3BfontSize%3D17%3BfontColor%3D%23666666%3BstrokeColor%3D%23666666%3Balign%3Dleft%3BspacingLeft%3D8%3BfillColor%3Dnone%3BresizeWidth%3D1%3BwhiteSpace%3Dwrap%3B%22%20vertex%3D%221%22%20parent%3D%2211%22%3E%3CmxGeometry%20width%3D%22500%22%20height%3D%2230%22%20relative%3D%221%22%20as%3D%22geometry%22%2F%3E%3C%2FmxCell%3E%3CmxCell%20id%3D%2213%22%20value%3D%22%22%20style%3D%22shape%3Dellipse%3BstrokeColor%3D%23008cff%3Bresizable%3D0%3BfillColor%3Dnone%3Bhtml%3D1%3B%22%20vertex%3D%221%22%20parent%3D%2212%22%3E%3CmxGeometry%20x%3D%221%22%20y%3D%220.5%22%20width%3D%2220%22%20height%3D%2220%22%20relative%3D%221%22%20as%3D%22geometry%22%3E%3CmxPoint%20x%3D%22-25%22%20y%3D%22-10%22%20as%3D%22offset%22%2F%3E%3C%2FmxGeometry%3E%3C%2FmxCell%3E%3CmxCell%20id%3D%2214%22%20value%3D%22next%22%20style%3D%22strokeWidth%3D1%3Bshadow%3D0%3Bdashed%3D0%3Balign%3Dcenter%3Bhtml%3D1%3Bshape%3Dmxgraph.mockup.containers.rrect%3BrSize%3D0%3BfontSize%3D16%3BfontColor%3D%23666666%3BstrokeColor%3D%23c4c4c4%3BwhiteSpace%3Dwrap%3BfillColor%3Dnone%3B%22%20vertex%3D%221%22%20parent%3D%2211%22%3E%3CmxGeometry%20x%3D%220.75%22%20y%3D%221%22%20width%3D%22109.25%22%20height%3D%2246%22%20relative%3D%221%22%20as%3D%22geometry%22%3E%3CmxPoint%20x%3D%22-124%22%20y%3D%22-54%22%20as%3D%22offset%22%2F%3E%3C%2FmxGeometry%3E%3C%2FmxCell%3E%3CmxCell%20id%3D%2215%22%20value%3D%22Line%201%22%20style%3D%22strokeWidth%3D1%3Bshadow%3D0%3Bdashed%3D0%3Balign%3Dcenter%3Bhtml%3D1%3Bshape%3Dmxgraph.mockup.text.textBox%3BfontColor%3D%23666666%3Balign%3Dleft%3BfontSize%3D17%3BspacingLeft%3D4%3BspacingTop%3D-3%3BwhiteSpace%3Dwrap%3BstrokeColor%3D%23666666%3BmainText%3D%22%20vertex%3D%221%22%20parent%3D%2211%22%3E%3CmxGeometry%20x%3D%22139.34426229508196%22%20y%3D%22114.8%22%20width%3D%22245.90163934426226%22%20height%3D%2249.2%22%20as%3D%22geometry%22%2F%3E%3C%2FmxCell%3E%3CmxCell%20id%3D%2216%22%20value%3D%22Line%201%22%20style%3D%22strokeWidth%3D1%3Bshadow%3D0%3Bdashed%3D0%3Balign%3Dcenter%3Bhtml%3D1%3Bshape%3Dmxgraph.mockup.text.textBox%3BfontColor%3D%23666666%3Balign%3Dleft%3BfontSize%3D17%3BspacingLeft%3D4%3BspacingTop%3D-3%3BwhiteSpace%3Dwrap%3BstrokeColor%3D%23666666%3BmainText%3D%22%20vertex%3D%221%22%20parent%3D%2211%22%3E%3CmxGeometry%20x%3D%22139.99770491803278%22%20y%3D%22196.8%22%20width%3D%22245.90163934426226%22%20height%3D%2249.2%22%20as%3D%22geometry%22%2F%3E%3C%2FmxCell%3E%3CmxCell%20id%3D%2217%22%20value%3D%22Line%201%22%20style%3D%22strokeWidth%3D1%3Bshadow%3D0%3Bdashed%3D0%3Balign%3Dcenter%3Bhtml%3D1%3Bshape%3Dmxgraph.mockup.text.textBox%3BfontColor%3D%23666666%3Balign%3Dleft%3BfontSize%3D17%3BspacingLeft%3D4%3BspacingTop%3D-3%3BwhiteSpace%3Dwrap%3BstrokeColor%3D%23666666%3BmainText%3D%22%20vertex%3D%221%22%20parent%3D%2211%22%3E%3CmxGeometry%20x%3D%22139.99770491803278%22%20y%3D%2250.00000000000001%22%20width%3D%22245.90163934426226%22%20height%3D%2249.2%22%20as%3D%22geometry%22%2F%3E%3C%2FmxCell%3E%3CmxCell%20id%3D%2218%22%20value%3D%22Line%201%22%20style%3D%22strokeWidth%3D1%3Bshadow%3D0%3Bdashed%3D0%3Balign%3Dcenter%3Bhtml%3D1%3Bshape%3Dmxgraph.mockup.text.textBox%3BfontColor%3D%23666666%3Balign%3Dleft%3BfontSize%3D17%3BspacingLeft%3D4%3BspacingTop%3D-3%3BwhiteSpace%3Dwrap%3BstrokeColor%3D%23666666%3BmainText%3D%22%20vertex%3D%221%22%20parent%3D%2211%22%3E%3CmxGeometry%20x%3D%22140%22%20y%3D%22270%22%20width%3D%22250%22%20height%3D%2250%22%20as%3D%22geometry%22%2F%3E%3C%2FmxCell%3E%3C%2Froot%3E%3C%2FmxGraphModel%3E" style="strokeWidth=1;shadow=0;dashed=0;align=center;html=1;shape=mxgraph.mockup.containers.browserWindow;rSize=0;strokeColor=#666666;strokeColor2=#008cff;strokeColor3=#c4c4c4;mainText=,;recursiveResize=0;" vertex="1" parent="1">
          <mxGeometry y="3110" width="770" height="690" as="geometry" />
        </mxCell>
        <mxCell id="C2OVpttP7pJ9jfqpv7On-109" value="home" style="strokeWidth=1;shadow=0;dashed=0;align=center;html=1;shape=mxgraph.mockup.containers.anchor;fontSize=17;fontColor=#666666;align=left;whiteSpace=wrap;" vertex="1" parent="C2OVpttP7pJ9jfqpv7On-108">
          <mxGeometry x="60" y="12" width="110" height="26" as="geometry" />
        </mxCell>
        <mxCell id="C2OVpttP7pJ9jfqpv7On-110" value="https://www.quizegame.com/quize" style="strokeWidth=1;shadow=0;dashed=0;align=center;html=1;shape=mxgraph.mockup.containers.anchor;rSize=0;fontSize=17;fontColor=#666666;align=left;" vertex="1" parent="C2OVpttP7pJ9jfqpv7On-108">
          <mxGeometry x="130" y="60" width="250" height="26" as="geometry" />
        </mxCell>
        <mxCell id="C2OVpttP7pJ9jfqpv7On-111" value="" style="strokeWidth=1;shadow=0;dashed=0;align=center;html=1;shape=mxgraph.mockup.text.rrect;rSize=0;strokeColor=#666666;" vertex="1" parent="C2OVpttP7pJ9jfqpv7On-108">
          <mxGeometry x="260" y="142.5" width="500" height="25" as="geometry" />
        </mxCell>
        <mxCell id="C2OVpttP7pJ9jfqpv7On-112" value="score" style="strokeColor=inherit;fillColor=inherit;gradientColor=inherit;strokeWidth=1;shadow=0;dashed=0;align=center;html=1;shape=mxgraph.mockup.text.rrect;rSize=0;fontSize=17;fontColor=#0000ff;whiteSpace=wrap;" vertex="1" parent="C2OVpttP7pJ9jfqpv7On-111">
          <mxGeometry x="125" width="125" height="25" as="geometry" />
        </mxCell>
        <mxCell id="C2OVpttP7pJ9jfqpv7On-113" value="login" style="strokeColor=inherit;fillColor=inherit;gradientColor=inherit;strokeWidth=1;shadow=0;dashed=0;align=center;html=1;shape=mxgraph.mockup.text.rrect;rSize=0;fontSize=17;fontColor=#0000ff;whiteSpace=wrap;" vertex="1" parent="C2OVpttP7pJ9jfqpv7On-111">
          <mxGeometry x="250" width="125" height="25" as="geometry" />
        </mxCell>
        <mxCell id="C2OVpttP7pJ9jfqpv7On-114" value="contact" style="strokeColor=inherit;fillColor=inherit;gradientColor=inherit;strokeWidth=1;shadow=0;dashed=0;align=center;html=1;shape=mxgraph.mockup.text.rrect;rSize=0;fontSize=17;fontColor=#0000ff;whiteSpace=wrap;" vertex="1" parent="C2OVpttP7pJ9jfqpv7On-111">
          <mxGeometry x="375" width="125" height="25" as="geometry" />
        </mxCell>
        <mxCell id="C2OVpttP7pJ9jfqpv7On-115" value="home" style="strokeWidth=1;shadow=0;dashed=0;align=center;html=1;shape=mxgraph.mockup.text.rrect;rSize=0;fontSize=17;fontColor=#ffffff;fillColor=#008cff;strokeColor=#008cff;whiteSpace=wrap;" vertex="1" parent="C2OVpttP7pJ9jfqpv7On-111">
          <mxGeometry width="125" height="25" as="geometry" />
        </mxCell>
        <mxCell id="C2OVpttP7pJ9jfqpv7On-116" value="" style="verticalLabelPosition=bottom;shadow=0;dashed=0;align=center;html=1;verticalAlign=top;strokeWidth=1;shape=mxgraph.mockup.graphics.simpleIcon;strokeColor=#999999;" vertex="1" parent="C2OVpttP7pJ9jfqpv7On-108">
          <mxGeometry x="40" y="130" width="90" height="50" as="geometry" />
        </mxCell>
        <mxCell id="C2OVpttP7pJ9jfqpv7On-117" value="" style="strokeWidth=1;shadow=0;dashed=0;align=center;html=1;shape=mxgraph.mockup.containers.rrect;rSize=0;strokeColor=#666666;fontColor=#666666;fontSize=17;verticalAlign=top;whiteSpace=wrap;fillColor=#ffffff;spacingTop=32;" vertex="1" parent="C2OVpttP7pJ9jfqpv7On-108">
          <mxGeometry x="120" y="230" width="500" height="410" as="geometry" />
        </mxCell>
        <mxCell id="C2OVpttP7pJ9jfqpv7On-118" value="result" style="strokeWidth=1;shadow=0;dashed=0;align=center;html=1;shape=mxgraph.mockup.containers.rrect;rSize=0;fontSize=17;fontColor=#666666;strokeColor=#666666;align=left;spacingLeft=8;fillColor=none;resizeWidth=1;whiteSpace=wrap;" vertex="1" parent="C2OVpttP7pJ9jfqpv7On-117">
          <mxGeometry width="500" height="30" relative="1" as="geometry" />
        </mxCell>
        <mxCell id="C2OVpttP7pJ9jfqpv7On-119" value="" style="shape=ellipse;strokeColor=#008cff;resizable=0;fillColor=none;html=1;" vertex="1" parent="C2OVpttP7pJ9jfqpv7On-118">
          <mxGeometry x="1" y="0.5" width="20" height="20" relative="1" as="geometry">
            <mxPoint x="-25" y="-10" as="offset" />
          </mxGeometry>
        </mxCell>
        <mxCell id="C2OVpttP7pJ9jfqpv7On-120" value="finshed" style="strokeWidth=1;shadow=0;dashed=0;align=center;html=1;shape=mxgraph.mockup.containers.rrect;rSize=0;fontSize=16;fontColor=#666666;strokeColor=#c4c4c4;whiteSpace=wrap;fillColor=none;" vertex="1" parent="C2OVpttP7pJ9jfqpv7On-117">
          <mxGeometry x="0.75" y="1" width="210" height="46" relative="1" as="geometry">
            <mxPoint x="-224.75" y="-54" as="offset" />
          </mxGeometry>
        </mxCell>
        <mxCell id="C2OVpttP7pJ9jfqpv7On-121" value="Line 1" style="strokeWidth=1;shadow=0;dashed=0;align=center;html=1;shape=mxgraph.mockup.text.textBox;fontColor=#666666;align=left;fontSize=17;spacingLeft=4;spacingTop=-3;whiteSpace=wrap;strokeColor=#666666;mainText=" vertex="1" parent="C2OVpttP7pJ9jfqpv7On-117">
          <mxGeometry x="139.99426229508197" y="170" width="245.90163934426226" height="49.2" as="geometry" />
        </mxCell>
        <mxCell id="C2OVpttP7pJ9jfqpv7On-123" value="Line 1" style="strokeWidth=1;shadow=0;dashed=0;align=center;html=1;shape=mxgraph.mockup.text.textBox;fontColor=#666666;align=left;fontSize=17;spacingLeft=4;spacingTop=-3;whiteSpace=wrap;strokeColor=#666666;mainText=" vertex="1" parent="C2OVpttP7pJ9jfqpv7On-117">
          <mxGeometry x="139.99770491803278" y="50.00000000000001" width="245.90163934426226" height="49.2" as="geometry" />
        </mxCell>
        <mxCell id="C2OVpttP7pJ9jfqpv7On-125" value="%3CmxGraphModel%3E%3Croot%3E%3CmxCell%20id%3D%220%22%2F%3E%3CmxCell%20id%3D%221%22%20parent%3D%220%22%2F%3E%3CmxCell%20id%3D%222%22%20value%3D%22%22%20style%3D%22strokeWidth%3D1%3Bshadow%3D0%3Bdashed%3D0%3Balign%3Dcenter%3Bhtml%3D1%3Bshape%3Dmxgraph.mockup.containers.browserWindow%3BrSize%3D0%3BstrokeColor%3D%23666666%3BstrokeColor2%3D%23008cff%3BstrokeColor3%3D%23c4c4c4%3BmainText%3D%2C%3BrecursiveResize%3D0%3B%22%20vertex%3D%221%22%20parent%3D%221%22%3E%3CmxGeometry%20x%3D%2210%22%20y%3D%222350%22%20width%3D%22770%22%20height%3D%22690%22%20as%3D%22geometry%22%2F%3E%3C%2FmxCell%3E%3CmxCell%20id%3D%223%22%20value%3D%22home%22%20style%3D%22strokeWidth%3D1%3Bshadow%3D0%3Bdashed%3D0%3Balign%3Dcenter%3Bhtml%3D1%3Bshape%3Dmxgraph.mockup.containers.anchor%3BfontSize%3D17%3BfontColor%3D%23666666%3Balign%3Dleft%3BwhiteSpace%3Dwrap%3B%22%20vertex%3D%221%22%20parent%3D%222%22%3E%3CmxGeometry%20x%3D%2260%22%20y%3D%2212%22%20width%3D%22110%22%20height%3D%2226%22%20as%3D%22geometry%22%2F%3E%3C%2FmxCell%3E%3CmxCell%20id%3D%224%22%20value%3D%22https%3A%2F%2Fwww.quizegame.com%2Fquize%22%20style%3D%22strokeWidth%3D1%3Bshadow%3D0%3Bdashed%3D0%3Balign%3Dcenter%3Bhtml%3D1%3Bshape%3Dmxgraph.mockup.containers.anchor%3BrSize%3D0%3BfontSize%3D17%3BfontColor%3D%23666666%3Balign%3Dleft%3B%22%20vertex%3D%221%22%20parent%3D%222%22%3E%3CmxGeometry%20x%3D%22130%22%20y%3D%2260%22%20width%3D%22250%22%20height%3D%2226%22%20as%3D%22geometry%22%2F%3E%3C%2FmxCell%3E%3CmxCell%20id%3D%225%22%20value%3D%22%22%20style%3D%22strokeWidth%3D1%3Bshadow%3D0%3Bdashed%3D0%3Balign%3Dcenter%3Bhtml%3D1%3Bshape%3Dmxgraph.mockup.text.rrect%3BrSize%3D0%3BstrokeColor%3D%23666666%3B%22%20vertex%3D%221%22%20parent%3D%222%22%3E%3CmxGeometry%20x%3D%22260%22%20y%3D%22142.5%22%20width%3D%22500%22%20height%3D%2225%22%20as%3D%22geometry%22%2F%3E%3C%2FmxCell%3E%3CmxCell%20id%3D%226%22%20value%3D%22score%22%20style%3D%22strokeColor%3Dinherit%3BfillColor%3Dinherit%3BgradientColor%3Dinherit%3BstrokeWidth%3D1%3Bshadow%3D0%3Bdashed%3D0%3Balign%3Dcenter%3Bhtml%3D1%3Bshape%3Dmxgraph.mockup.text.rrect%3BrSize%3D0%3BfontSize%3D17%3BfontColor%3D%230000ff%3BwhiteSpace%3Dwrap%3B%22%20vertex%3D%221%22%20parent%3D%225%22%3E%3CmxGeometry%20x%3D%22125%22%20width%3D%22125%22%20height%3D%2225%22%20as%3D%22geometry%22%2F%3E%3C%2FmxCell%3E%3CmxCell%20id%3D%227%22%20value%3D%22login%22%20style%3D%22strokeColor%3Dinherit%3BfillColor%3Dinherit%3BgradientColor%3Dinherit%3BstrokeWidth%3D1%3Bshadow%3D0%3Bdashed%3D0%3Balign%3Dcenter%3Bhtml%3D1%3Bshape%3Dmxgraph.mockup.text.rrect%3BrSize%3D0%3BfontSize%3D17%3BfontColor%3D%230000ff%3BwhiteSpace%3Dwrap%3B%22%20vertex%3D%221%22%20parent%3D%225%22%3E%3CmxGeometry%20x%3D%22250%22%20width%3D%22125%22%20height%3D%2225%22%20as%3D%22geometry%22%2F%3E%3C%2FmxCell%3E%3CmxCell%20id%3D%228%22%20value%3D%22contact%22%20style%3D%22strokeColor%3Dinherit%3BfillColor%3Dinherit%3BgradientColor%3Dinherit%3BstrokeWidth%3D1%3Bshadow%3D0%3Bdashed%3D0%3Balign%3Dcenter%3Bhtml%3D1%3Bshape%3Dmxgraph.mockup.text.rrect%3BrSize%3D0%3BfontSize%3D17%3BfontColor%3D%230000ff%3BwhiteSpace%3Dwrap%3B%22%20vertex%3D%221%22%20parent%3D%225%22%3E%3CmxGeometry%20x%3D%22375%22%20width%3D%22125%22%20height%3D%2225%22%20as%3D%22geometry%22%2F%3E%3C%2FmxCell%3E%3CmxCell%20id%3D%229%22%20value%3D%22home%22%20style%3D%22strokeWidth%3D1%3Bshadow%3D0%3Bdashed%3D0%3Balign%3Dcenter%3Bhtml%3D1%3Bshape%3Dmxgraph.mockup.text.rrect%3BrSize%3D0%3BfontSize%3D17%3BfontColor%3D%23ffffff%3BfillColor%3D%23008cff%3BstrokeColor%3D%23008cff%3BwhiteSpace%3Dwrap%3B%22%20vertex%3D%221%22%20parent%3D%225%22%3E%3CmxGeometry%20width%3D%22125%22%20height%3D%2225%22%20as%3D%22geometry%22%2F%3E%3C%2FmxCell%3E%3CmxCell%20id%3D%2210%22%20value%3D%22%22%20style%3D%22verticalLabelPosition%3Dbottom%3Bshadow%3D0%3Bdashed%3D0%3Balign%3Dcenter%3Bhtml%3D1%3BverticalAlign%3Dtop%3BstrokeWidth%3D1%3Bshape%3Dmxgraph.mockup.graphics.simpleIcon%3BstrokeColor%3D%23999999%3B%22%20vertex%3D%221%22%20parent%3D%222%22%3E%3CmxGeometry%20x%3D%2240%22%20y%3D%22130%22%20width%3D%2290%22%20height%3D%2250%22%20as%3D%22geometry%22%2F%3E%3C%2FmxCell%3E%3CmxCell%20id%3D%2211%22%20value%3D%22%22%20style%3D%22strokeWidth%3D1%3Bshadow%3D0%3Bdashed%3D0%3Balign%3Dcenter%3Bhtml%3D1%3Bshape%3Dmxgraph.mockup.containers.rrect%3BrSize%3D0%3BstrokeColor%3D%23666666%3BfontColor%3D%23666666%3BfontSize%3D17%3BverticalAlign%3Dtop%3BwhiteSpace%3Dwrap%3BfillColor%3D%23ffffff%3BspacingTop%3D32%3B%22%20vertex%3D%221%22%20parent%3D%222%22%3E%3CmxGeometry%20x%3D%22120%22%20y%3D%22230%22%20width%3D%22500%22%20height%3D%22410%22%20as%3D%22geometry%22%2F%3E%3C%2FmxCell%3E%3CmxCell%20id%3D%2212%22%20value%3D%22quize%22%20style%3D%22strokeWidth%3D1%3Bshadow%3D0%3Bdashed%3D0%3Balign%3Dcenter%3Bhtml%3D1%3Bshape%3Dmxgraph.mockup.containers.rrect%3BrSize%3D0%3BfontSize%3D17%3BfontColor%3D%23666666%3BstrokeColor%3D%23666666%3Balign%3Dleft%3BspacingLeft%3D8%3BfillColor%3Dnone%3BresizeWidth%3D1%3BwhiteSpace%3Dwrap%3B%22%20vertex%3D%221%22%20parent%3D%2211%22%3E%3CmxGeometry%20width%3D%22500%22%20height%3D%2230%22%20relative%3D%221%22%20as%3D%22geometry%22%2F%3E%3C%2FmxCell%3E%3CmxCell%20id%3D%2213%22%20value%3D%22%22%20style%3D%22shape%3Dellipse%3BstrokeColor%3D%23008cff%3Bresizable%3D0%3BfillColor%3Dnone%3Bhtml%3D1%3B%22%20vertex%3D%221%22%20parent%3D%2212%22%3E%3CmxGeometry%20x%3D%221%22%20y%3D%220.5%22%20width%3D%2220%22%20height%3D%2220%22%20relative%3D%221%22%20as%3D%22geometry%22%3E%3CmxPoint%20x%3D%22-25%22%20y%3D%22-10%22%20as%3D%22offset%22%2F%3E%3C%2FmxGeometry%3E%3C%2FmxCell%3E%3CmxCell%20id%3D%2214%22%20value%3D%22next%22%20style%3D%22strokeWidth%3D1%3Bshadow%3D0%3Bdashed%3D0%3Balign%3Dcenter%3Bhtml%3D1%3Bshape%3Dmxgraph.mockup.containers.rrect%3BrSize%3D0%3BfontSize%3D16%3BfontColor%3D%23666666%3BstrokeColor%3D%23c4c4c4%3BwhiteSpace%3Dwrap%3BfillColor%3Dnone%3B%22%20vertex%3D%221%22%20parent%3D%2211%22%3E%3CmxGeometry%20x%3D%220.75%22%20y%3D%221%22%20width%3D%22109.25%22%20height%3D%2246%22%20relative%3D%221%22%20as%3D%22geometry%22%3E%3CmxPoint%20x%3D%22-124%22%20y%3D%22-54%22%20as%3D%22offset%22%2F%3E%3C%2FmxGeometry%3E%3C%2FmxCell%3E%3CmxCell%20id%3D%2215%22%20value%3D%22Line%201%22%20style%3D%22strokeWidth%3D1%3Bshadow%3D0%3Bdashed%3D0%3Balign%3Dcenter%3Bhtml%3D1%3Bshape%3Dmxgraph.mockup.text.textBox%3BfontColor%3D%23666666%3Balign%3Dleft%3BfontSize%3D17%3BspacingLeft%3D4%3BspacingTop%3D-3%3BwhiteSpace%3Dwrap%3BstrokeColor%3D%23666666%3BmainText%3D%22%20vertex%3D%221%22%20parent%3D%2211%22%3E%3CmxGeometry%20x%3D%22139.34426229508196%22%20y%3D%22114.8%22%20width%3D%22245.90163934426226%22%20height%3D%2249.2%22%20as%3D%22geometry%22%2F%3E%3C%2FmxCell%3E%3CmxCell%20id%3D%2216%22%20value%3D%22Line%201%22%20style%3D%22strokeWidth%3D1%3Bshadow%3D0%3Bdashed%3D0%3Balign%3Dcenter%3Bhtml%3D1%3Bshape%3Dmxgraph.mockup.text.textBox%3BfontColor%3D%23666666%3Balign%3Dleft%3BfontSize%3D17%3BspacingLeft%3D4%3BspacingTop%3D-3%3BwhiteSpace%3Dwrap%3BstrokeColor%3D%23666666%3BmainText%3D%22%20vertex%3D%221%22%20parent%3D%2211%22%3E%3CmxGeometry%20x%3D%22139.99770491803278%22%20y%3D%22196.8%22%20width%3D%22245.90163934426226%22%20height%3D%2249.2%22%20as%3D%22geometry%22%2F%3E%3C%2FmxCell%3E%3CmxCell%20id%3D%2217%22%20value%3D%22Line%201%22%20style%3D%22strokeWidth%3D1%3Bshadow%3D0%3Bdashed%3D0%3Balign%3Dcenter%3Bhtml%3D1%3Bshape%3Dmxgraph.mockup.text.textBox%3BfontColor%3D%23666666%3Balign%3Dleft%3BfontSize%3D17%3BspacingLeft%3D4%3BspacingTop%3D-3%3BwhiteSpace%3Dwrap%3BstrokeColor%3D%23666666%3BmainText%3D%22%20vertex%3D%221%22%20parent%3D%2211%22%3E%3CmxGeometry%20x%3D%22139.99770491803278%22%20y%3D%2250.00000000000001%22%20width%3D%22245.90163934426226%22%20height%3D%2249.2%22%20as%3D%22geometry%22%2F%3E%3C%2FmxCell%3E%3CmxCell%20id%3D%2218%22%20value%3D%22Line%201%22%20style%3D%22strokeWidth%3D1%3Bshadow%3D0%3Bdashed%3D0%3Balign%3Dcenter%3Bhtml%3D1%3Bshape%3Dmxgraph.mockup.text.textBox%3BfontColor%3D%23666666%3Balign%3Dleft%3BfontSize%3D17%3BspacingLeft%3D4%3BspacingTop%3D-3%3BwhiteSpace%3Dwrap%3BstrokeColor%3D%23666666%3BmainText%3D%22%20vertex%3D%221%22%20parent%3D%2211%22%3E%3CmxGeometry%20x%3D%22140%22%20y%3D%22270%22%20width%3D%22250%22%20height%3D%2250%22%20as%3D%22geometry%22%2F%3E%3C%2FmxCell%3E%3C%2Froot%3E%3C%2FmxGraphModel%3E" style="strokeWidth=1;shadow=0;dashed=0;align=center;html=1;shape=mxgraph.mockup.containers.browserWindow;rSize=0;strokeColor=#666666;strokeColor2=#008cff;strokeColor3=#c4c4c4;mainText=,;recursiveResize=0;fontColor=#330000;" vertex="1" parent="1">
          <mxGeometry x="60" y="5542" width="770" height="690" as="geometry" />
        </mxCell>
        <mxCell id="C2OVpttP7pJ9jfqpv7On-126" value="contact" style="strokeWidth=1;shadow=0;dashed=0;align=center;html=1;shape=mxgraph.mockup.containers.anchor;fontSize=17;fontColor=#666666;align=left;whiteSpace=wrap;" vertex="1" parent="C2OVpttP7pJ9jfqpv7On-125">
          <mxGeometry x="60" y="12" width="110" height="26" as="geometry" />
        </mxCell>
        <mxCell id="C2OVpttP7pJ9jfqpv7On-127" value="https://www.quizegame.com/contact" style="strokeWidth=1;shadow=0;dashed=0;align=center;html=1;shape=mxgraph.mockup.containers.anchor;rSize=0;fontSize=17;fontColor=#666666;align=left;" vertex="1" parent="C2OVpttP7pJ9jfqpv7On-125">
          <mxGeometry x="130" y="60" width="250" height="26" as="geometry" />
        </mxCell>
        <mxCell id="C2OVpttP7pJ9jfqpv7On-128" value="" style="strokeWidth=1;shadow=0;dashed=0;align=center;html=1;shape=mxgraph.mockup.text.rrect;rSize=0;strokeColor=#666666;" vertex="1" parent="C2OVpttP7pJ9jfqpv7On-125">
          <mxGeometry x="260" y="142.5" width="500" height="25" as="geometry" />
        </mxCell>
        <mxCell id="C2OVpttP7pJ9jfqpv7On-129" value="score" style="strokeColor=inherit;fillColor=inherit;gradientColor=inherit;strokeWidth=1;shadow=0;dashed=0;align=center;html=1;shape=mxgraph.mockup.text.rrect;rSize=0;fontSize=17;fontColor=#0000ff;whiteSpace=wrap;" vertex="1" parent="C2OVpttP7pJ9jfqpv7On-128">
          <mxGeometry x="125" width="125" height="25" as="geometry" />
        </mxCell>
        <mxCell id="C2OVpttP7pJ9jfqpv7On-130" value="login" style="strokeColor=inherit;fillColor=inherit;gradientColor=inherit;strokeWidth=1;shadow=0;dashed=0;align=center;html=1;shape=mxgraph.mockup.text.rrect;rSize=0;fontSize=17;fontColor=#0000ff;whiteSpace=wrap;" vertex="1" parent="C2OVpttP7pJ9jfqpv7On-128">
          <mxGeometry x="250" width="125" height="25" as="geometry" />
        </mxCell>
        <mxCell id="C2OVpttP7pJ9jfqpv7On-131" value="contact" style="strokeColor=#6c8ebf;fillColor=#B9E0A5;strokeWidth=1;shadow=0;dashed=0;align=center;html=1;shape=mxgraph.mockup.text.rrect;rSize=0;fontSize=17;whiteSpace=wrap;" vertex="1" parent="C2OVpttP7pJ9jfqpv7On-128">
          <mxGeometry x="375" width="125" height="25" as="geometry" />
        </mxCell>
        <mxCell id="C2OVpttP7pJ9jfqpv7On-132" value="&lt;font color=&quot;#330000&quot;&gt;home&lt;/font&gt;" style="strokeWidth=1;shadow=0;dashed=0;align=center;html=1;shape=mxgraph.mockup.text.rrect;rSize=0;fontSize=17;fontColor=#ffffff;fillColor=#FFFFFF;strokeColor=#008cff;whiteSpace=wrap;" vertex="1" parent="C2OVpttP7pJ9jfqpv7On-128">
          <mxGeometry width="125" height="25" as="geometry" />
        </mxCell>
        <mxCell id="C2OVpttP7pJ9jfqpv7On-133" value="" style="verticalLabelPosition=bottom;shadow=0;dashed=0;align=center;html=1;verticalAlign=top;strokeWidth=1;shape=mxgraph.mockup.graphics.simpleIcon;strokeColor=#999999;" vertex="1" parent="C2OVpttP7pJ9jfqpv7On-125">
          <mxGeometry x="40" y="130" width="90" height="50" as="geometry" />
        </mxCell>
        <mxCell id="C2OVpttP7pJ9jfqpv7On-134" value="" style="strokeWidth=1;shadow=0;dashed=0;align=center;html=1;shape=mxgraph.mockup.containers.rrect;rSize=0;strokeColor=#666666;fontColor=#666666;fontSize=17;verticalAlign=top;whiteSpace=wrap;fillColor=#ffffff;spacingTop=32;" vertex="1" parent="C2OVpttP7pJ9jfqpv7On-125">
          <mxGeometry x="120" y="230" width="500" height="410" as="geometry" />
        </mxCell>
        <mxCell id="C2OVpttP7pJ9jfqpv7On-135" value="contact" style="strokeWidth=1;shadow=0;dashed=0;align=center;html=1;shape=mxgraph.mockup.containers.rrect;rSize=0;fontSize=17;fontColor=#666666;strokeColor=#666666;align=left;spacingLeft=8;fillColor=none;resizeWidth=1;whiteSpace=wrap;" vertex="1" parent="C2OVpttP7pJ9jfqpv7On-134">
          <mxGeometry width="500" height="30" relative="1" as="geometry" />
        </mxCell>
        <mxCell id="C2OVpttP7pJ9jfqpv7On-137" value="send" style="strokeWidth=1;shadow=0;dashed=0;align=center;html=1;shape=mxgraph.mockup.containers.rrect;rSize=0;fontSize=16;fontColor=#666666;strokeColor=#c4c4c4;whiteSpace=wrap;fillColor=none;" vertex="1" parent="C2OVpttP7pJ9jfqpv7On-134">
          <mxGeometry x="0.75" y="1" width="210" height="46" relative="1" as="geometry">
            <mxPoint x="-224.75" y="-54" as="offset" />
          </mxGeometry>
        </mxCell>
        <mxCell id="C2OVpttP7pJ9jfqpv7On-138" value="email" style="strokeWidth=1;shadow=0;dashed=0;align=center;html=1;shape=mxgraph.mockup.text.textBox;fontColor=#666666;align=left;fontSize=17;spacingLeft=4;spacingTop=-3;whiteSpace=wrap;strokeColor=#666666;mainText=" vertex="1" parent="C2OVpttP7pJ9jfqpv7On-134">
          <mxGeometry x="139.99426229508197" y="128" width="245.90163934426226" height="49.2" as="geometry" />
        </mxCell>
        <mxCell id="C2OVpttP7pJ9jfqpv7On-139" value="title" style="strokeWidth=1;shadow=0;dashed=0;align=center;html=1;shape=mxgraph.mockup.text.textBox;fontColor=#666666;align=left;fontSize=17;spacingLeft=4;spacingTop=-3;whiteSpace=wrap;strokeColor=#666666;mainText=" vertex="1" parent="C2OVpttP7pJ9jfqpv7On-134">
          <mxGeometry x="139.99770491803278" y="50.00000000000001" width="245.90163934426226" height="49.2" as="geometry" />
        </mxCell>
        <mxCell id="C2OVpttP7pJ9jfqpv7On-196" value="text" style="strokeWidth=1;shadow=0;dashed=0;align=center;html=1;shape=mxgraph.mockup.text.textBox;fontColor=#666666;align=left;fontSize=17;spacingLeft=4;spacingTop=-3;whiteSpace=wrap;strokeColor=#666666;mainText=" vertex="1" parent="C2OVpttP7pJ9jfqpv7On-134">
          <mxGeometry x="139.99" y="208" width="245.9" height="132" as="geometry" />
        </mxCell>
        <mxCell id="C2OVpttP7pJ9jfqpv7On-140" value="%3CmxGraphModel%3E%3Croot%3E%3CmxCell%20id%3D%220%22%2F%3E%3CmxCell%20id%3D%221%22%20parent%3D%220%22%2F%3E%3CmxCell%20id%3D%222%22%20value%3D%22%22%20style%3D%22strokeWidth%3D1%3Bshadow%3D0%3Bdashed%3D0%3Balign%3Dcenter%3Bhtml%3D1%3Bshape%3Dmxgraph.mockup.containers.browserWindow%3BrSize%3D0%3BstrokeColor%3D%23666666%3BstrokeColor2%3D%23008cff%3BstrokeColor3%3D%23c4c4c4%3BmainText%3D%2C%3BrecursiveResize%3D0%3B%22%20vertex%3D%221%22%20parent%3D%221%22%3E%3CmxGeometry%20x%3D%2210%22%20y%3D%222350%22%20width%3D%22770%22%20height%3D%22690%22%20as%3D%22geometry%22%2F%3E%3C%2FmxCell%3E%3CmxCell%20id%3D%223%22%20value%3D%22home%22%20style%3D%22strokeWidth%3D1%3Bshadow%3D0%3Bdashed%3D0%3Balign%3Dcenter%3Bhtml%3D1%3Bshape%3Dmxgraph.mockup.containers.anchor%3BfontSize%3D17%3BfontColor%3D%23666666%3Balign%3Dleft%3BwhiteSpace%3Dwrap%3B%22%20vertex%3D%221%22%20parent%3D%222%22%3E%3CmxGeometry%20x%3D%2260%22%20y%3D%2212%22%20width%3D%22110%22%20height%3D%2226%22%20as%3D%22geometry%22%2F%3E%3C%2FmxCell%3E%3CmxCell%20id%3D%224%22%20value%3D%22https%3A%2F%2Fwww.quizegame.com%2Fquize%22%20style%3D%22strokeWidth%3D1%3Bshadow%3D0%3Bdashed%3D0%3Balign%3Dcenter%3Bhtml%3D1%3Bshape%3Dmxgraph.mockup.containers.anchor%3BrSize%3D0%3BfontSize%3D17%3BfontColor%3D%23666666%3Balign%3Dleft%3B%22%20vertex%3D%221%22%20parent%3D%222%22%3E%3CmxGeometry%20x%3D%22130%22%20y%3D%2260%22%20width%3D%22250%22%20height%3D%2226%22%20as%3D%22geometry%22%2F%3E%3C%2FmxCell%3E%3CmxCell%20id%3D%225%22%20value%3D%22%22%20style%3D%22strokeWidth%3D1%3Bshadow%3D0%3Bdashed%3D0%3Balign%3Dcenter%3Bhtml%3D1%3Bshape%3Dmxgraph.mockup.text.rrect%3BrSize%3D0%3BstrokeColor%3D%23666666%3B%22%20vertex%3D%221%22%20parent%3D%222%22%3E%3CmxGeometry%20x%3D%22260%22%20y%3D%22142.5%22%20width%3D%22500%22%20height%3D%2225%22%20as%3D%22geometry%22%2F%3E%3C%2FmxCell%3E%3CmxCell%20id%3D%226%22%20value%3D%22score%22%20style%3D%22strokeColor%3Dinherit%3BfillColor%3Dinherit%3BgradientColor%3Dinherit%3BstrokeWidth%3D1%3Bshadow%3D0%3Bdashed%3D0%3Balign%3Dcenter%3Bhtml%3D1%3Bshape%3Dmxgraph.mockup.text.rrect%3BrSize%3D0%3BfontSize%3D17%3BfontColor%3D%230000ff%3BwhiteSpace%3Dwrap%3B%22%20vertex%3D%221%22%20parent%3D%225%22%3E%3CmxGeometry%20x%3D%22125%22%20width%3D%22125%22%20height%3D%2225%22%20as%3D%22geometry%22%2F%3E%3C%2FmxCell%3E%3CmxCell%20id%3D%227%22%20value%3D%22login%22%20style%3D%22strokeColor%3Dinherit%3BfillColor%3Dinherit%3BgradientColor%3Dinherit%3BstrokeWidth%3D1%3Bshadow%3D0%3Bdashed%3D0%3Balign%3Dcenter%3Bhtml%3D1%3Bshape%3Dmxgraph.mockup.text.rrect%3BrSize%3D0%3BfontSize%3D17%3BfontColor%3D%230000ff%3BwhiteSpace%3Dwrap%3B%22%20vertex%3D%221%22%20parent%3D%225%22%3E%3CmxGeometry%20x%3D%22250%22%20width%3D%22125%22%20height%3D%2225%22%20as%3D%22geometry%22%2F%3E%3C%2FmxCell%3E%3CmxCell%20id%3D%228%22%20value%3D%22contact%22%20style%3D%22strokeColor%3Dinherit%3BfillColor%3Dinherit%3BgradientColor%3Dinherit%3BstrokeWidth%3D1%3Bshadow%3D0%3Bdashed%3D0%3Balign%3Dcenter%3Bhtml%3D1%3Bshape%3Dmxgraph.mockup.text.rrect%3BrSize%3D0%3BfontSize%3D17%3BfontColor%3D%230000ff%3BwhiteSpace%3Dwrap%3B%22%20vertex%3D%221%22%20parent%3D%225%22%3E%3CmxGeometry%20x%3D%22375%22%20width%3D%22125%22%20height%3D%2225%22%20as%3D%22geometry%22%2F%3E%3C%2FmxCell%3E%3CmxCell%20id%3D%229%22%20value%3D%22home%22%20style%3D%22strokeWidth%3D1%3Bshadow%3D0%3Bdashed%3D0%3Balign%3Dcenter%3Bhtml%3D1%3Bshape%3Dmxgraph.mockup.text.rrect%3BrSize%3D0%3BfontSize%3D17%3BfontColor%3D%23ffffff%3BfillColor%3D%23008cff%3BstrokeColor%3D%23008cff%3BwhiteSpace%3Dwrap%3B%22%20vertex%3D%221%22%20parent%3D%225%22%3E%3CmxGeometry%20width%3D%22125%22%20height%3D%2225%22%20as%3D%22geometry%22%2F%3E%3C%2FmxCell%3E%3CmxCell%20id%3D%2210%22%20value%3D%22%22%20style%3D%22verticalLabelPosition%3Dbottom%3Bshadow%3D0%3Bdashed%3D0%3Balign%3Dcenter%3Bhtml%3D1%3BverticalAlign%3Dtop%3BstrokeWidth%3D1%3Bshape%3Dmxgraph.mockup.graphics.simpleIcon%3BstrokeColor%3D%23999999%3B%22%20vertex%3D%221%22%20parent%3D%222%22%3E%3CmxGeometry%20x%3D%2240%22%20y%3D%22130%22%20width%3D%2290%22%20height%3D%2250%22%20as%3D%22geometry%22%2F%3E%3C%2FmxCell%3E%3CmxCell%20id%3D%2211%22%20value%3D%22%22%20style%3D%22strokeWidth%3D1%3Bshadow%3D0%3Bdashed%3D0%3Balign%3Dcenter%3Bhtml%3D1%3Bshape%3Dmxgraph.mockup.containers.rrect%3BrSize%3D0%3BstrokeColor%3D%23666666%3BfontColor%3D%23666666%3BfontSize%3D17%3BverticalAlign%3Dtop%3BwhiteSpace%3Dwrap%3BfillColor%3D%23ffffff%3BspacingTop%3D32%3B%22%20vertex%3D%221%22%20parent%3D%222%22%3E%3CmxGeometry%20x%3D%22120%22%20y%3D%22230%22%20width%3D%22500%22%20height%3D%22410%22%20as%3D%22geometry%22%2F%3E%3C%2FmxCell%3E%3CmxCell%20id%3D%2212%22%20value%3D%22quize%22%20style%3D%22strokeWidth%3D1%3Bshadow%3D0%3Bdashed%3D0%3Balign%3Dcenter%3Bhtml%3D1%3Bshape%3Dmxgraph.mockup.containers.rrect%3BrSize%3D0%3BfontSize%3D17%3BfontColor%3D%23666666%3BstrokeColor%3D%23666666%3Balign%3Dleft%3BspacingLeft%3D8%3BfillColor%3Dnone%3BresizeWidth%3D1%3BwhiteSpace%3Dwrap%3B%22%20vertex%3D%221%22%20parent%3D%2211%22%3E%3CmxGeometry%20width%3D%22500%22%20height%3D%2230%22%20relative%3D%221%22%20as%3D%22geometry%22%2F%3E%3C%2FmxCell%3E%3CmxCell%20id%3D%2213%22%20value%3D%22%22%20style%3D%22shape%3Dellipse%3BstrokeColor%3D%23008cff%3Bresizable%3D0%3BfillColor%3Dnone%3Bhtml%3D1%3B%22%20vertex%3D%221%22%20parent%3D%2212%22%3E%3CmxGeometry%20x%3D%221%22%20y%3D%220.5%22%20width%3D%2220%22%20height%3D%2220%22%20relative%3D%221%22%20as%3D%22geometry%22%3E%3CmxPoint%20x%3D%22-25%22%20y%3D%22-10%22%20as%3D%22offset%22%2F%3E%3C%2FmxGeometry%3E%3C%2FmxCell%3E%3CmxCell%20id%3D%2214%22%20value%3D%22next%22%20style%3D%22strokeWidth%3D1%3Bshadow%3D0%3Bdashed%3D0%3Balign%3Dcenter%3Bhtml%3D1%3Bshape%3Dmxgraph.mockup.containers.rrect%3BrSize%3D0%3BfontSize%3D16%3BfontColor%3D%23666666%3BstrokeColor%3D%23c4c4c4%3BwhiteSpace%3Dwrap%3BfillColor%3Dnone%3B%22%20vertex%3D%221%22%20parent%3D%2211%22%3E%3CmxGeometry%20x%3D%220.75%22%20y%3D%221%22%20width%3D%22109.25%22%20height%3D%2246%22%20relative%3D%221%22%20as%3D%22geometry%22%3E%3CmxPoint%20x%3D%22-124%22%20y%3D%22-54%22%20as%3D%22offset%22%2F%3E%3C%2FmxGeometry%3E%3C%2FmxCell%3E%3CmxCell%20id%3D%2215%22%20value%3D%22Line%201%22%20style%3D%22strokeWidth%3D1%3Bshadow%3D0%3Bdashed%3D0%3Balign%3Dcenter%3Bhtml%3D1%3Bshape%3Dmxgraph.mockup.text.textBox%3BfontColor%3D%23666666%3Balign%3Dleft%3BfontSize%3D17%3BspacingLeft%3D4%3BspacingTop%3D-3%3BwhiteSpace%3Dwrap%3BstrokeColor%3D%23666666%3BmainText%3D%22%20vertex%3D%221%22%20parent%3D%2211%22%3E%3CmxGeometry%20x%3D%22139.34426229508196%22%20y%3D%22114.8%22%20width%3D%22245.90163934426226%22%20height%3D%2249.2%22%20as%3D%22geometry%22%2F%3E%3C%2FmxCell%3E%3CmxCell%20id%3D%2216%22%20value%3D%22Line%201%22%20style%3D%22strokeWidth%3D1%3Bshadow%3D0%3Bdashed%3D0%3Balign%3Dcenter%3Bhtml%3D1%3Bshape%3Dmxgraph.mockup.text.textBox%3BfontColor%3D%23666666%3Balign%3Dleft%3BfontSize%3D17%3BspacingLeft%3D4%3BspacingTop%3D-3%3BwhiteSpace%3Dwrap%3BstrokeColor%3D%23666666%3BmainText%3D%22%20vertex%3D%221%22%20parent%3D%2211%22%3E%3CmxGeometry%20x%3D%22139.99770491803278%22%20y%3D%22196.8%22%20width%3D%22245.90163934426226%22%20height%3D%2249.2%22%20as%3D%22geometry%22%2F%3E%3C%2FmxCell%3E%3CmxCell%20id%3D%2217%22%20value%3D%22Line%201%22%20style%3D%22strokeWidth%3D1%3Bshadow%3D0%3Bdashed%3D0%3Balign%3Dcenter%3Bhtml%3D1%3Bshape%3Dmxgraph.mockup.text.textBox%3BfontColor%3D%23666666%3Balign%3Dleft%3BfontSize%3D17%3BspacingLeft%3D4%3BspacingTop%3D-3%3BwhiteSpace%3Dwrap%3BstrokeColor%3D%23666666%3BmainText%3D%22%20vertex%3D%221%22%20parent%3D%2211%22%3E%3CmxGeometry%20x%3D%22139.99770491803278%22%20y%3D%2250.00000000000001%22%20width%3D%22245.90163934426226%22%20height%3D%2249.2%22%20as%3D%22geometry%22%2F%3E%3C%2FmxCell%3E%3CmxCell%20id%3D%2218%22%20value%3D%22Line%201%22%20style%3D%22strokeWidth%3D1%3Bshadow%3D0%3Bdashed%3D0%3Balign%3Dcenter%3Bhtml%3D1%3Bshape%3Dmxgraph.mockup.text.textBox%3BfontColor%3D%23666666%3Balign%3Dleft%3BfontSize%3D17%3BspacingLeft%3D4%3BspacingTop%3D-3%3BwhiteSpace%3Dwrap%3BstrokeColor%3D%23666666%3BmainText%3D%22%20vertex%3D%221%22%20parent%3D%2211%22%3E%3CmxGeometry%20x%3D%22140%22%20y%3D%22270%22%20width%3D%22250%22%20height%3D%2250%22%20as%3D%22geometry%22%2F%3E%3C%2FmxCell%3E%3C%2Froot%3E%3C%2FmxGraphModel%3E" style="strokeWidth=1;shadow=0;dashed=0;align=center;html=1;shape=mxgraph.mockup.containers.browserWindow;rSize=0;strokeColor=#666666;strokeColor2=#008cff;strokeColor3=#c4c4c4;mainText=,;recursiveResize=0;" vertex="1" parent="1">
          <mxGeometry x="10" y="4000" width="770" height="690" as="geometry" />
        </mxCell>
        <mxCell id="C2OVpttP7pJ9jfqpv7On-141" value="score" style="strokeWidth=1;shadow=0;dashed=0;align=center;html=1;shape=mxgraph.mockup.containers.anchor;fontSize=17;fontColor=#666666;align=left;whiteSpace=wrap;" vertex="1" parent="C2OVpttP7pJ9jfqpv7On-140">
          <mxGeometry x="60" y="12" width="110" height="26" as="geometry" />
        </mxCell>
        <mxCell id="C2OVpttP7pJ9jfqpv7On-142" value="https://www.quizegame.com/score" style="strokeWidth=1;shadow=0;dashed=0;align=center;html=1;shape=mxgraph.mockup.containers.anchor;rSize=0;fontSize=17;fontColor=#666666;align=left;" vertex="1" parent="C2OVpttP7pJ9jfqpv7On-140">
          <mxGeometry x="130" y="60" width="250" height="26" as="geometry" />
        </mxCell>
        <mxCell id="C2OVpttP7pJ9jfqpv7On-143" value="" style="strokeWidth=1;shadow=0;dashed=0;align=center;html=1;shape=mxgraph.mockup.text.rrect;rSize=0;strokeColor=#666666;" vertex="1" parent="C2OVpttP7pJ9jfqpv7On-140">
          <mxGeometry x="260" y="142.5" width="500" height="25" as="geometry" />
        </mxCell>
        <mxCell id="C2OVpttP7pJ9jfqpv7On-144" value="score" style="strokeColor=#b85450;fillColor=#f8cecc;strokeWidth=1;shadow=0;dashed=0;align=center;html=1;shape=mxgraph.mockup.text.rrect;rSize=0;fontSize=17;whiteSpace=wrap;" vertex="1" parent="C2OVpttP7pJ9jfqpv7On-143">
          <mxGeometry x="125" width="125" height="25" as="geometry" />
        </mxCell>
        <mxCell id="C2OVpttP7pJ9jfqpv7On-145" value="login" style="strokeColor=inherit;fillColor=inherit;gradientColor=inherit;strokeWidth=1;shadow=0;dashed=0;align=center;html=1;shape=mxgraph.mockup.text.rrect;rSize=0;fontSize=17;fontColor=#0000ff;whiteSpace=wrap;" vertex="1" parent="C2OVpttP7pJ9jfqpv7On-143">
          <mxGeometry x="250" width="125" height="25" as="geometry" />
        </mxCell>
        <mxCell id="C2OVpttP7pJ9jfqpv7On-146" value="contact" style="strokeColor=inherit;fillColor=inherit;gradientColor=inherit;strokeWidth=1;shadow=0;dashed=0;align=center;html=1;shape=mxgraph.mockup.text.rrect;rSize=0;fontSize=17;fontColor=#0000ff;whiteSpace=wrap;" vertex="1" parent="C2OVpttP7pJ9jfqpv7On-143">
          <mxGeometry x="375" width="125" height="25" as="geometry" />
        </mxCell>
        <mxCell id="C2OVpttP7pJ9jfqpv7On-147" value="&lt;font color=&quot;#330000&quot;&gt;home&lt;/font&gt;" style="strokeWidth=1;shadow=0;dashed=0;align=center;html=1;shape=mxgraph.mockup.text.rrect;rSize=0;fontSize=17;fontColor=#ffffff;fillColor=none;strokeColor=#008cff;whiteSpace=wrap;" vertex="1" parent="C2OVpttP7pJ9jfqpv7On-143">
          <mxGeometry width="125" height="25" as="geometry" />
        </mxCell>
        <mxCell id="C2OVpttP7pJ9jfqpv7On-148" value="" style="verticalLabelPosition=bottom;shadow=0;dashed=0;align=center;html=1;verticalAlign=top;strokeWidth=1;shape=mxgraph.mockup.graphics.simpleIcon;strokeColor=#999999;" vertex="1" parent="C2OVpttP7pJ9jfqpv7On-140">
          <mxGeometry x="40" y="130" width="90" height="50" as="geometry" />
        </mxCell>
        <mxCell id="C2OVpttP7pJ9jfqpv7On-155" value="" style="shape=table;html=1;whiteSpace=wrap;startSize=0;container=1;collapsible=0;childLayout=tableLayout;strokeWidth=2;" vertex="1" parent="1">
          <mxGeometry x="160" y="4210" width="510" height="320" as="geometry" />
        </mxCell>
        <mxCell id="C2OVpttP7pJ9jfqpv7On-156" value="" style="shape=tableRow;horizontal=0;startSize=0;swimlaneHead=0;swimlaneBody=0;top=0;left=0;bottom=0;right=0;collapsible=0;dropTarget=0;fillColor=none;points=[[0,0.5],[1,0.5]];portConstraint=eastwest;" vertex="1" parent="C2OVpttP7pJ9jfqpv7On-155">
          <mxGeometry width="510" height="108" as="geometry" />
        </mxCell>
        <mxCell id="C2OVpttP7pJ9jfqpv7On-157" value="Header 1" style="shape=partialRectangle;html=1;whiteSpace=wrap;connectable=0;fillColor=none;top=0;left=0;bottom=0;right=0;overflow=hidden;fontStyle=1" vertex="1" parent="C2OVpttP7pJ9jfqpv7On-156">
          <mxGeometry width="255" height="108" as="geometry">
            <mxRectangle width="255" height="108" as="alternateBounds" />
          </mxGeometry>
        </mxCell>
        <mxCell id="C2OVpttP7pJ9jfqpv7On-158" value="Header 2" style="shape=partialRectangle;html=1;whiteSpace=wrap;connectable=0;fillColor=none;top=0;left=0;bottom=0;right=0;overflow=hidden;fontStyle=1" vertex="1" parent="C2OVpttP7pJ9jfqpv7On-156">
          <mxGeometry x="255" width="255" height="108" as="geometry">
            <mxRectangle width="255" height="108" as="alternateBounds" />
          </mxGeometry>
        </mxCell>
        <mxCell id="C2OVpttP7pJ9jfqpv7On-159" value="" style="shape=tableRow;horizontal=0;startSize=0;swimlaneHead=0;swimlaneBody=0;top=0;left=0;bottom=0;right=0;collapsible=0;dropTarget=0;fillColor=none;points=[[0,0.5],[1,0.5]];portConstraint=eastwest;" vertex="1" parent="C2OVpttP7pJ9jfqpv7On-155">
          <mxGeometry y="108" width="510" height="104" as="geometry" />
        </mxCell>
        <mxCell id="C2OVpttP7pJ9jfqpv7On-160" value="row 1, cell 1" style="shape=partialRectangle;html=1;whiteSpace=wrap;connectable=0;fillColor=none;top=0;left=0;bottom=0;right=0;overflow=hidden;" vertex="1" parent="C2OVpttP7pJ9jfqpv7On-159">
          <mxGeometry width="255" height="104" as="geometry">
            <mxRectangle width="255" height="104" as="alternateBounds" />
          </mxGeometry>
        </mxCell>
        <mxCell id="C2OVpttP7pJ9jfqpv7On-161" value="row 1, cell 2" style="shape=partialRectangle;html=1;whiteSpace=wrap;connectable=0;fillColor=none;top=0;left=0;bottom=0;right=0;overflow=hidden;" vertex="1" parent="C2OVpttP7pJ9jfqpv7On-159">
          <mxGeometry x="255" width="255" height="104" as="geometry">
            <mxRectangle width="255" height="104" as="alternateBounds" />
          </mxGeometry>
        </mxCell>
        <mxCell id="C2OVpttP7pJ9jfqpv7On-162" value="" style="shape=tableRow;horizontal=0;startSize=0;swimlaneHead=0;swimlaneBody=0;top=0;left=0;bottom=0;right=0;collapsible=0;dropTarget=0;fillColor=none;points=[[0,0.5],[1,0.5]];portConstraint=eastwest;" vertex="1" parent="C2OVpttP7pJ9jfqpv7On-155">
          <mxGeometry y="212" width="510" height="108" as="geometry" />
        </mxCell>
        <mxCell id="C2OVpttP7pJ9jfqpv7On-163" value="row 2, cell 1" style="shape=partialRectangle;html=1;whiteSpace=wrap;connectable=0;fillColor=none;top=0;left=0;bottom=0;right=0;overflow=hidden;" vertex="1" parent="C2OVpttP7pJ9jfqpv7On-162">
          <mxGeometry width="255" height="108" as="geometry">
            <mxRectangle width="255" height="108" as="alternateBounds" />
          </mxGeometry>
        </mxCell>
        <mxCell id="C2OVpttP7pJ9jfqpv7On-164" value="row 2, cell 2" style="shape=partialRectangle;html=1;whiteSpace=wrap;connectable=0;fillColor=none;top=0;left=0;bottom=0;right=0;overflow=hidden;" vertex="1" parent="C2OVpttP7pJ9jfqpv7On-162">
          <mxGeometry x="255" width="255" height="108" as="geometry">
            <mxRectangle width="255" height="108" as="alternateBounds" />
          </mxGeometry>
        </mxCell>
        <mxCell id="C2OVpttP7pJ9jfqpv7On-165" value="%3CmxGraphModel%3E%3Croot%3E%3CmxCell%20id%3D%220%22%2F%3E%3CmxCell%20id%3D%221%22%20parent%3D%220%22%2F%3E%3CmxCell%20id%3D%222%22%20value%3D%22%22%20style%3D%22strokeWidth%3D1%3Bshadow%3D0%3Bdashed%3D0%3Balign%3Dcenter%3Bhtml%3D1%3Bshape%3Dmxgraph.mockup.containers.browserWindow%3BrSize%3D0%3BstrokeColor%3D%23666666%3BstrokeColor2%3D%23008cff%3BstrokeColor3%3D%23c4c4c4%3BmainText%3D%2C%3BrecursiveResize%3D0%3B%22%20vertex%3D%221%22%20parent%3D%221%22%3E%3CmxGeometry%20x%3D%2210%22%20y%3D%222350%22%20width%3D%22770%22%20height%3D%22690%22%20as%3D%22geometry%22%2F%3E%3C%2FmxCell%3E%3CmxCell%20id%3D%223%22%20value%3D%22home%22%20style%3D%22strokeWidth%3D1%3Bshadow%3D0%3Bdashed%3D0%3Balign%3Dcenter%3Bhtml%3D1%3Bshape%3Dmxgraph.mockup.containers.anchor%3BfontSize%3D17%3BfontColor%3D%23666666%3Balign%3Dleft%3BwhiteSpace%3Dwrap%3B%22%20vertex%3D%221%22%20parent%3D%222%22%3E%3CmxGeometry%20x%3D%2260%22%20y%3D%2212%22%20width%3D%22110%22%20height%3D%2226%22%20as%3D%22geometry%22%2F%3E%3C%2FmxCell%3E%3CmxCell%20id%3D%224%22%20value%3D%22https%3A%2F%2Fwww.quizegame.com%2Fquize%22%20style%3D%22strokeWidth%3D1%3Bshadow%3D0%3Bdashed%3D0%3Balign%3Dcenter%3Bhtml%3D1%3Bshape%3Dmxgraph.mockup.containers.anchor%3BrSize%3D0%3BfontSize%3D17%3BfontColor%3D%23666666%3Balign%3Dleft%3B%22%20vertex%3D%221%22%20parent%3D%222%22%3E%3CmxGeometry%20x%3D%22130%22%20y%3D%2260%22%20width%3D%22250%22%20height%3D%2226%22%20as%3D%22geometry%22%2F%3E%3C%2FmxCell%3E%3CmxCell%20id%3D%225%22%20value%3D%22%22%20style%3D%22strokeWidth%3D1%3Bshadow%3D0%3Bdashed%3D0%3Balign%3Dcenter%3Bhtml%3D1%3Bshape%3Dmxgraph.mockup.text.rrect%3BrSize%3D0%3BstrokeColor%3D%23666666%3B%22%20vertex%3D%221%22%20parent%3D%222%22%3E%3CmxGeometry%20x%3D%22260%22%20y%3D%22142.5%22%20width%3D%22500%22%20height%3D%2225%22%20as%3D%22geometry%22%2F%3E%3C%2FmxCell%3E%3CmxCell%20id%3D%226%22%20value%3D%22score%22%20style%3D%22strokeColor%3Dinherit%3BfillColor%3Dinherit%3BgradientColor%3Dinherit%3BstrokeWidth%3D1%3Bshadow%3D0%3Bdashed%3D0%3Balign%3Dcenter%3Bhtml%3D1%3Bshape%3Dmxgraph.mockup.text.rrect%3BrSize%3D0%3BfontSize%3D17%3BfontColor%3D%230000ff%3BwhiteSpace%3Dwrap%3B%22%20vertex%3D%221%22%20parent%3D%225%22%3E%3CmxGeometry%20x%3D%22125%22%20width%3D%22125%22%20height%3D%2225%22%20as%3D%22geometry%22%2F%3E%3C%2FmxCell%3E%3CmxCell%20id%3D%227%22%20value%3D%22login%22%20style%3D%22strokeColor%3Dinherit%3BfillColor%3Dinherit%3BgradientColor%3Dinherit%3BstrokeWidth%3D1%3Bshadow%3D0%3Bdashed%3D0%3Balign%3Dcenter%3Bhtml%3D1%3Bshape%3Dmxgraph.mockup.text.rrect%3BrSize%3D0%3BfontSize%3D17%3BfontColor%3D%230000ff%3BwhiteSpace%3Dwrap%3B%22%20vertex%3D%221%22%20parent%3D%225%22%3E%3CmxGeometry%20x%3D%22250%22%20width%3D%22125%22%20height%3D%2225%22%20as%3D%22geometry%22%2F%3E%3C%2FmxCell%3E%3CmxCell%20id%3D%228%22%20value%3D%22contact%22%20style%3D%22strokeColor%3Dinherit%3BfillColor%3Dinherit%3BgradientColor%3Dinherit%3BstrokeWidth%3D1%3Bshadow%3D0%3Bdashed%3D0%3Balign%3Dcenter%3Bhtml%3D1%3Bshape%3Dmxgraph.mockup.text.rrect%3BrSize%3D0%3BfontSize%3D17%3BfontColor%3D%230000ff%3BwhiteSpace%3Dwrap%3B%22%20vertex%3D%221%22%20parent%3D%225%22%3E%3CmxGeometry%20x%3D%22375%22%20width%3D%22125%22%20height%3D%2225%22%20as%3D%22geometry%22%2F%3E%3C%2FmxCell%3E%3CmxCell%20id%3D%229%22%20value%3D%22home%22%20style%3D%22strokeWidth%3D1%3Bshadow%3D0%3Bdashed%3D0%3Balign%3Dcenter%3Bhtml%3D1%3Bshape%3Dmxgraph.mockup.text.rrect%3BrSize%3D0%3BfontSize%3D17%3BfontColor%3D%23ffffff%3BfillColor%3D%23008cff%3BstrokeColor%3D%23008cff%3BwhiteSpace%3Dwrap%3B%22%20vertex%3D%221%22%20parent%3D%225%22%3E%3CmxGeometry%20width%3D%22125%22%20height%3D%2225%22%20as%3D%22geometry%22%2F%3E%3C%2FmxCell%3E%3CmxCell%20id%3D%2210%22%20value%3D%22%22%20style%3D%22verticalLabelPosition%3Dbottom%3Bshadow%3D0%3Bdashed%3D0%3Balign%3Dcenter%3Bhtml%3D1%3BverticalAlign%3Dtop%3BstrokeWidth%3D1%3Bshape%3Dmxgraph.mockup.graphics.simpleIcon%3BstrokeColor%3D%23999999%3B%22%20vertex%3D%221%22%20parent%3D%222%22%3E%3CmxGeometry%20x%3D%2240%22%20y%3D%22130%22%20width%3D%2290%22%20height%3D%2250%22%20as%3D%22geometry%22%2F%3E%3C%2FmxCell%3E%3CmxCell%20id%3D%2211%22%20value%3D%22%22%20style%3D%22strokeWidth%3D1%3Bshadow%3D0%3Bdashed%3D0%3Balign%3Dcenter%3Bhtml%3D1%3Bshape%3Dmxgraph.mockup.containers.rrect%3BrSize%3D0%3BstrokeColor%3D%23666666%3BfontColor%3D%23666666%3BfontSize%3D17%3BverticalAlign%3Dtop%3BwhiteSpace%3Dwrap%3BfillColor%3D%23ffffff%3BspacingTop%3D32%3B%22%20vertex%3D%221%22%20parent%3D%222%22%3E%3CmxGeometry%20x%3D%22120%22%20y%3D%22230%22%20width%3D%22500%22%20height%3D%22410%22%20as%3D%22geometry%22%2F%3E%3C%2FmxCell%3E%3CmxCell%20id%3D%2212%22%20value%3D%22quize%22%20style%3D%22strokeWidth%3D1%3Bshadow%3D0%3Bdashed%3D0%3Balign%3Dcenter%3Bhtml%3D1%3Bshape%3Dmxgraph.mockup.containers.rrect%3BrSize%3D0%3BfontSize%3D17%3BfontColor%3D%23666666%3BstrokeColor%3D%23666666%3Balign%3Dleft%3BspacingLeft%3D8%3BfillColor%3Dnone%3BresizeWidth%3D1%3BwhiteSpace%3Dwrap%3B%22%20vertex%3D%221%22%20parent%3D%2211%22%3E%3CmxGeometry%20width%3D%22500%22%20height%3D%2230%22%20relative%3D%221%22%20as%3D%22geometry%22%2F%3E%3C%2FmxCell%3E%3CmxCell%20id%3D%2213%22%20value%3D%22%22%20style%3D%22shape%3Dellipse%3BstrokeColor%3D%23008cff%3Bresizable%3D0%3BfillColor%3Dnone%3Bhtml%3D1%3B%22%20vertex%3D%221%22%20parent%3D%2212%22%3E%3CmxGeometry%20x%3D%221%22%20y%3D%220.5%22%20width%3D%2220%22%20height%3D%2220%22%20relative%3D%221%22%20as%3D%22geometry%22%3E%3CmxPoint%20x%3D%22-25%22%20y%3D%22-10%22%20as%3D%22offset%22%2F%3E%3C%2FmxGeometry%3E%3C%2FmxCell%3E%3CmxCell%20id%3D%2214%22%20value%3D%22next%22%20style%3D%22strokeWidth%3D1%3Bshadow%3D0%3Bdashed%3D0%3Balign%3Dcenter%3Bhtml%3D1%3Bshape%3Dmxgraph.mockup.containers.rrect%3BrSize%3D0%3BfontSize%3D16%3BfontColor%3D%23666666%3BstrokeColor%3D%23c4c4c4%3BwhiteSpace%3Dwrap%3BfillColor%3Dnone%3B%22%20vertex%3D%221%22%20parent%3D%2211%22%3E%3CmxGeometry%20x%3D%220.75%22%20y%3D%221%22%20width%3D%22109.25%22%20height%3D%2246%22%20relative%3D%221%22%20as%3D%22geometry%22%3E%3CmxPoint%20x%3D%22-124%22%20y%3D%22-54%22%20as%3D%22offset%22%2F%3E%3C%2FmxGeometry%3E%3C%2FmxCell%3E%3CmxCell%20id%3D%2215%22%20value%3D%22Line%201%22%20style%3D%22strokeWidth%3D1%3Bshadow%3D0%3Bdashed%3D0%3Balign%3Dcenter%3Bhtml%3D1%3Bshape%3Dmxgraph.mockup.text.textBox%3BfontColor%3D%23666666%3Balign%3Dleft%3BfontSize%3D17%3BspacingLeft%3D4%3BspacingTop%3D-3%3BwhiteSpace%3Dwrap%3BstrokeColor%3D%23666666%3BmainText%3D%22%20vertex%3D%221%22%20parent%3D%2211%22%3E%3CmxGeometry%20x%3D%22139.34426229508196%22%20y%3D%22114.8%22%20width%3D%22245.90163934426226%22%20height%3D%2249.2%22%20as%3D%22geometry%22%2F%3E%3C%2FmxCell%3E%3CmxCell%20id%3D%2216%22%20value%3D%22Line%201%22%20style%3D%22strokeWidth%3D1%3Bshadow%3D0%3Bdashed%3D0%3Balign%3Dcenter%3Bhtml%3D1%3Bshape%3Dmxgraph.mockup.text.textBox%3BfontColor%3D%23666666%3Balign%3Dleft%3BfontSize%3D17%3BspacingLeft%3D4%3BspacingTop%3D-3%3BwhiteSpace%3Dwrap%3BstrokeColor%3D%23666666%3BmainText%3D%22%20vertex%3D%221%22%20parent%3D%2211%22%3E%3CmxGeometry%20x%3D%22139.99770491803278%22%20y%3D%22196.8%22%20width%3D%22245.90163934426226%22%20height%3D%2249.2%22%20as%3D%22geometry%22%2F%3E%3C%2FmxCell%3E%3CmxCell%20id%3D%2217%22%20value%3D%22Line%201%22%20style%3D%22strokeWidth%3D1%3Bshadow%3D0%3Bdashed%3D0%3Balign%3Dcenter%3Bhtml%3D1%3Bshape%3Dmxgraph.mockup.text.textBox%3BfontColor%3D%23666666%3Balign%3Dleft%3BfontSize%3D17%3BspacingLeft%3D4%3BspacingTop%3D-3%3BwhiteSpace%3Dwrap%3BstrokeColor%3D%23666666%3BmainText%3D%22%20vertex%3D%221%22%20parent%3D%2211%22%3E%3CmxGeometry%20x%3D%22139.99770491803278%22%20y%3D%2250.00000000000001%22%20width%3D%22245.90163934426226%22%20height%3D%2249.2%22%20as%3D%22geometry%22%2F%3E%3C%2FmxCell%3E%3CmxCell%20id%3D%2218%22%20value%3D%22Line%201%22%20style%3D%22strokeWidth%3D1%3Bshadow%3D0%3Bdashed%3D0%3Balign%3Dcenter%3Bhtml%3D1%3Bshape%3Dmxgraph.mockup.text.textBox%3BfontColor%3D%23666666%3Balign%3Dleft%3BfontSize%3D17%3BspacingLeft%3D4%3BspacingTop%3D-3%3BwhiteSpace%3Dwrap%3BstrokeColor%3D%23666666%3BmainText%3D%22%20vertex%3D%221%22%20parent%3D%2211%22%3E%3CmxGeometry%20x%3D%22140%22%20y%3D%22270%22%20width%3D%22250%22%20height%3D%2250%22%20as%3D%22geometry%22%2F%3E%3C%2FmxCell%3E%3C%2Froot%3E%3C%2FmxGraphModel%3E" style="strokeWidth=1;shadow=0;dashed=0;align=center;html=1;shape=mxgraph.mockup.containers.browserWindow;rSize=0;strokeColor=#666666;strokeColor2=#008cff;strokeColor3=#c4c4c4;mainText=,;recursiveResize=0;" vertex="1" parent="1">
          <mxGeometry x="5" y="4770" width="770" height="690" as="geometry" />
        </mxCell>
        <mxCell id="C2OVpttP7pJ9jfqpv7On-166" value="login" style="strokeWidth=1;shadow=0;dashed=0;align=center;html=1;shape=mxgraph.mockup.containers.anchor;fontSize=17;fontColor=#666666;align=left;whiteSpace=wrap;" vertex="1" parent="C2OVpttP7pJ9jfqpv7On-165">
          <mxGeometry x="60" y="12" width="110" height="26" as="geometry" />
        </mxCell>
        <mxCell id="C2OVpttP7pJ9jfqpv7On-167" value="https://www.quizegame.com/login" style="strokeWidth=1;shadow=0;dashed=0;align=center;html=1;shape=mxgraph.mockup.containers.anchor;rSize=0;fontSize=17;fontColor=#666666;align=left;" vertex="1" parent="C2OVpttP7pJ9jfqpv7On-165">
          <mxGeometry x="130" y="60" width="250" height="26" as="geometry" />
        </mxCell>
        <mxCell id="C2OVpttP7pJ9jfqpv7On-168" value="" style="strokeWidth=1;shadow=0;dashed=0;align=center;html=1;shape=mxgraph.mockup.text.rrect;rSize=0;strokeColor=#666666;" vertex="1" parent="C2OVpttP7pJ9jfqpv7On-165">
          <mxGeometry x="260" y="142.5" width="500" height="25" as="geometry" />
        </mxCell>
        <mxCell id="C2OVpttP7pJ9jfqpv7On-169" value="score" style="strokeColor=inherit;fillColor=inherit;gradientColor=inherit;strokeWidth=1;shadow=0;dashed=0;align=center;html=1;shape=mxgraph.mockup.text.rrect;rSize=0;fontSize=17;fontColor=#0000ff;whiteSpace=wrap;" vertex="1" parent="C2OVpttP7pJ9jfqpv7On-168">
          <mxGeometry x="125" width="125" height="25" as="geometry" />
        </mxCell>
        <mxCell id="C2OVpttP7pJ9jfqpv7On-170" value="login" style="strokeColor=#b85450;fillColor=#f8cecc;strokeWidth=1;shadow=0;dashed=0;align=center;html=1;shape=mxgraph.mockup.text.rrect;rSize=0;fontSize=17;whiteSpace=wrap;" vertex="1" parent="C2OVpttP7pJ9jfqpv7On-168">
          <mxGeometry x="250" width="125" height="25" as="geometry" />
        </mxCell>
        <mxCell id="C2OVpttP7pJ9jfqpv7On-171" value="contact" style="strokeColor=inherit;fillColor=inherit;gradientColor=inherit;strokeWidth=1;shadow=0;dashed=0;align=center;html=1;shape=mxgraph.mockup.text.rrect;rSize=0;fontSize=17;fontColor=#0000ff;whiteSpace=wrap;" vertex="1" parent="C2OVpttP7pJ9jfqpv7On-168">
          <mxGeometry x="375" width="125" height="25" as="geometry" />
        </mxCell>
        <mxCell id="C2OVpttP7pJ9jfqpv7On-172" value="home" style="strokeWidth=1;shadow=0;dashed=0;align=center;html=1;shape=mxgraph.mockup.text.rrect;rSize=0;fontSize=17;whiteSpace=wrap;" vertex="1" parent="C2OVpttP7pJ9jfqpv7On-168">
          <mxGeometry width="125" height="25" as="geometry" />
        </mxCell>
        <mxCell id="C2OVpttP7pJ9jfqpv7On-173" value="" style="verticalLabelPosition=bottom;shadow=0;dashed=0;align=center;html=1;verticalAlign=top;strokeWidth=1;shape=mxgraph.mockup.graphics.simpleIcon;strokeColor=#999999;" vertex="1" parent="C2OVpttP7pJ9jfqpv7On-165">
          <mxGeometry x="40" y="130" width="90" height="50" as="geometry" />
        </mxCell>
        <mxCell id="C2OVpttP7pJ9jfqpv7On-174" value="" style="strokeWidth=1;shadow=0;dashed=0;align=center;html=1;shape=mxgraph.mockup.containers.rrect;rSize=0;strokeColor=#666666;fontColor=#666666;fontSize=17;verticalAlign=top;whiteSpace=wrap;fillColor=#ffffff;spacingTop=32;" vertex="1" parent="C2OVpttP7pJ9jfqpv7On-165">
          <mxGeometry x="120" y="230" width="500" height="410" as="geometry" />
        </mxCell>
        <mxCell id="C2OVpttP7pJ9jfqpv7On-177" value="signup" style="strokeWidth=1;shadow=0;dashed=0;align=center;html=1;shape=mxgraph.mockup.containers.rrect;rSize=0;fontSize=16;fontColor=#666666;strokeColor=#c4c4c4;whiteSpace=wrap;fillColor=none;" vertex="1" parent="C2OVpttP7pJ9jfqpv7On-174">
          <mxGeometry x="0.75" y="1" width="109.25" height="46" relative="1" as="geometry">
            <mxPoint x="-224.75" y="-54" as="offset" />
          </mxGeometry>
        </mxCell>
        <mxCell id="C2OVpttP7pJ9jfqpv7On-178" value="password" style="strokeWidth=1;shadow=0;dashed=0;align=center;html=1;shape=mxgraph.mockup.text.textBox;fontColor=#666666;align=left;fontSize=17;spacingLeft=4;spacingTop=-3;whiteSpace=wrap;strokeColor=#666666;mainText=" vertex="1" parent="C2OVpttP7pJ9jfqpv7On-174">
          <mxGeometry x="139.99426229508197" y="170" width="245.90163934426226" height="49.2" as="geometry" />
        </mxCell>
        <mxCell id="C2OVpttP7pJ9jfqpv7On-179" value="email" style="strokeWidth=1;shadow=0;dashed=0;align=center;html=1;shape=mxgraph.mockup.text.textBox;fontColor=#666666;align=left;fontSize=17;spacingLeft=4;spacingTop=-3;whiteSpace=wrap;strokeColor=#666666;mainText=" vertex="1" parent="C2OVpttP7pJ9jfqpv7On-174">
          <mxGeometry x="139.99770491803278" y="50.00000000000001" width="245.90163934426226" height="49.2" as="geometry" />
        </mxCell>
        <mxCell id="C2OVpttP7pJ9jfqpv7On-195" value="login" style="strokeWidth=1;shadow=0;dashed=0;align=center;html=1;shape=mxgraph.mockup.containers.rrect;rSize=0;fontSize=16;fontColor=#666666;strokeColor=#c4c4c4;whiteSpace=wrap;fillColor=none;" vertex="1" parent="C2OVpttP7pJ9jfqpv7On-174">
          <mxGeometry x="276.65" y="360" width="109.25" height="46" as="geometry" />
        </mxCell>
      </root>
    </mxGraphModel>
  </diagram>
</mxfile>
